%TF.GenerationSoftware,KiCad,Pcbnew,8.0.0*%
%TF.CreationDate,2024-03-22T16:21:54-07:00*%
%TF.ProjectId,stepper_controller_pcb,73746570-7065-4725-9f63-6f6e74726f6c,rev?*%
%TF.SameCoordinates,Original*%
%TF.FileFunction,Legend,Top*%
%TF.FilePolarity,Positive*%
%FSLAX46Y46*%
G04 Gerber Fmt 4.6, Leading zero omitted, Abs format (unit mm)*
G04 Created by KiCad (PCBNEW 8.0.0) date 2024-03-22 16:21:54*
%MOMM*%
%LPD*%
G01*
G04 APERTURE LIST*
%ADD10C,0.150000*%
%ADD11C,0.120000*%
G04 APERTURE END LIST*
D10*
X120084815Y-28488333D02*
X120799100Y-28488333D01*
X120799100Y-28488333D02*
X120941957Y-28535952D01*
X120941957Y-28535952D02*
X121037196Y-28631190D01*
X121037196Y-28631190D02*
X121084815Y-28774047D01*
X121084815Y-28774047D02*
X121084815Y-28869285D01*
X120084815Y-27535952D02*
X120084815Y-28012142D01*
X120084815Y-28012142D02*
X120561005Y-28059761D01*
X120561005Y-28059761D02*
X120513386Y-28012142D01*
X120513386Y-28012142D02*
X120465767Y-27916904D01*
X120465767Y-27916904D02*
X120465767Y-27678809D01*
X120465767Y-27678809D02*
X120513386Y-27583571D01*
X120513386Y-27583571D02*
X120561005Y-27535952D01*
X120561005Y-27535952D02*
X120656243Y-27488333D01*
X120656243Y-27488333D02*
X120894338Y-27488333D01*
X120894338Y-27488333D02*
X120989576Y-27535952D01*
X120989576Y-27535952D02*
X121037196Y-27583571D01*
X121037196Y-27583571D02*
X121084815Y-27678809D01*
X121084815Y-27678809D02*
X121084815Y-27916904D01*
X121084815Y-27916904D02*
X121037196Y-28012142D01*
X121037196Y-28012142D02*
X120989576Y-28059761D01*
X94665710Y-24929104D02*
X95141900Y-24929104D01*
X94570472Y-25214819D02*
X94903805Y-24214819D01*
X94903805Y-24214819D02*
X95237138Y-25214819D01*
X96094281Y-25214819D02*
X95522853Y-25214819D01*
X95808567Y-25214819D02*
X95808567Y-24214819D01*
X95808567Y-24214819D02*
X95713329Y-24357676D01*
X95713329Y-24357676D02*
X95618091Y-24452914D01*
X95618091Y-24452914D02*
X95522853Y-24500533D01*
X94118091Y-64854819D02*
X94118091Y-65664342D01*
X94118091Y-65664342D02*
X94165710Y-65759580D01*
X94165710Y-65759580D02*
X94213329Y-65807200D01*
X94213329Y-65807200D02*
X94308567Y-65854819D01*
X94308567Y-65854819D02*
X94499043Y-65854819D01*
X94499043Y-65854819D02*
X94594281Y-65807200D01*
X94594281Y-65807200D02*
X94641900Y-65759580D01*
X94641900Y-65759580D02*
X94689519Y-65664342D01*
X94689519Y-65664342D02*
X94689519Y-64854819D01*
X95118091Y-65807200D02*
X95260948Y-65854819D01*
X95260948Y-65854819D02*
X95499043Y-65854819D01*
X95499043Y-65854819D02*
X95594281Y-65807200D01*
X95594281Y-65807200D02*
X95641900Y-65759580D01*
X95641900Y-65759580D02*
X95689519Y-65664342D01*
X95689519Y-65664342D02*
X95689519Y-65569104D01*
X95689519Y-65569104D02*
X95641900Y-65473866D01*
X95641900Y-65473866D02*
X95594281Y-65426247D01*
X95594281Y-65426247D02*
X95499043Y-65378628D01*
X95499043Y-65378628D02*
X95308567Y-65331009D01*
X95308567Y-65331009D02*
X95213329Y-65283390D01*
X95213329Y-65283390D02*
X95165710Y-65235771D01*
X95165710Y-65235771D02*
X95118091Y-65140533D01*
X95118091Y-65140533D02*
X95118091Y-65045295D01*
X95118091Y-65045295D02*
X95165710Y-64950057D01*
X95165710Y-64950057D02*
X95213329Y-64902438D01*
X95213329Y-64902438D02*
X95308567Y-64854819D01*
X95308567Y-64854819D02*
X95546662Y-64854819D01*
X95546662Y-64854819D02*
X95689519Y-64902438D01*
X96451424Y-65331009D02*
X96594281Y-65378628D01*
X96594281Y-65378628D02*
X96641900Y-65426247D01*
X96641900Y-65426247D02*
X96689519Y-65521485D01*
X96689519Y-65521485D02*
X96689519Y-65664342D01*
X96689519Y-65664342D02*
X96641900Y-65759580D01*
X96641900Y-65759580D02*
X96594281Y-65807200D01*
X96594281Y-65807200D02*
X96499043Y-65854819D01*
X96499043Y-65854819D02*
X96118091Y-65854819D01*
X96118091Y-65854819D02*
X96118091Y-64854819D01*
X96118091Y-64854819D02*
X96451424Y-64854819D01*
X96451424Y-64854819D02*
X96546662Y-64902438D01*
X96546662Y-64902438D02*
X96594281Y-64950057D01*
X96594281Y-64950057D02*
X96641900Y-65045295D01*
X96641900Y-65045295D02*
X96641900Y-65140533D01*
X96641900Y-65140533D02*
X96594281Y-65235771D01*
X96594281Y-65235771D02*
X96546662Y-65283390D01*
X96546662Y-65283390D02*
X96451424Y-65331009D01*
X96451424Y-65331009D02*
X96118091Y-65331009D01*
X115166662Y-49529819D02*
X115166662Y-50244104D01*
X115166662Y-50244104D02*
X115119043Y-50386961D01*
X115119043Y-50386961D02*
X115023805Y-50482200D01*
X115023805Y-50482200D02*
X114880948Y-50529819D01*
X114880948Y-50529819D02*
X114785710Y-50529819D01*
X115547615Y-49529819D02*
X116166662Y-49529819D01*
X116166662Y-49529819D02*
X115833329Y-49910771D01*
X115833329Y-49910771D02*
X115976186Y-49910771D01*
X115976186Y-49910771D02*
X116071424Y-49958390D01*
X116071424Y-49958390D02*
X116119043Y-50006009D01*
X116119043Y-50006009D02*
X116166662Y-50101247D01*
X116166662Y-50101247D02*
X116166662Y-50339342D01*
X116166662Y-50339342D02*
X116119043Y-50434580D01*
X116119043Y-50434580D02*
X116071424Y-50482200D01*
X116071424Y-50482200D02*
X115976186Y-50529819D01*
X115976186Y-50529819D02*
X115690472Y-50529819D01*
X115690472Y-50529819D02*
X115595234Y-50482200D01*
X115595234Y-50482200D02*
X115547615Y-50434580D01*
X108874815Y-69538333D02*
X109589100Y-69538333D01*
X109589100Y-69538333D02*
X109731957Y-69585952D01*
X109731957Y-69585952D02*
X109827196Y-69681190D01*
X109827196Y-69681190D02*
X109874815Y-69824047D01*
X109874815Y-69824047D02*
X109874815Y-69919285D01*
X109874815Y-68538333D02*
X109874815Y-69109761D01*
X109874815Y-68824047D02*
X108874815Y-68824047D01*
X108874815Y-68824047D02*
X109017672Y-68919285D01*
X109017672Y-68919285D02*
X109112910Y-69014523D01*
X109112910Y-69014523D02*
X109160529Y-69109761D01*
X115166662Y-61979819D02*
X115166662Y-62694104D01*
X115166662Y-62694104D02*
X115119043Y-62836961D01*
X115119043Y-62836961D02*
X115023805Y-62932200D01*
X115023805Y-62932200D02*
X114880948Y-62979819D01*
X114880948Y-62979819D02*
X114785710Y-62979819D01*
X116071424Y-62313152D02*
X116071424Y-62979819D01*
X115833329Y-61932200D02*
X115595234Y-62646485D01*
X115595234Y-62646485D02*
X116214281Y-62646485D01*
X113666662Y-31354819D02*
X113666662Y-32069104D01*
X113666662Y-32069104D02*
X113619043Y-32211961D01*
X113619043Y-32211961D02*
X113523805Y-32307200D01*
X113523805Y-32307200D02*
X113380948Y-32354819D01*
X113380948Y-32354819D02*
X113285710Y-32354819D01*
X114095234Y-31450057D02*
X114142853Y-31402438D01*
X114142853Y-31402438D02*
X114238091Y-31354819D01*
X114238091Y-31354819D02*
X114476186Y-31354819D01*
X114476186Y-31354819D02*
X114571424Y-31402438D01*
X114571424Y-31402438D02*
X114619043Y-31450057D01*
X114619043Y-31450057D02*
X114666662Y-31545295D01*
X114666662Y-31545295D02*
X114666662Y-31640533D01*
X114666662Y-31640533D02*
X114619043Y-31783390D01*
X114619043Y-31783390D02*
X114047615Y-32354819D01*
X114047615Y-32354819D02*
X114666662Y-32354819D01*
X109324815Y-52666666D02*
X108848624Y-52999999D01*
X109324815Y-53238094D02*
X108324815Y-53238094D01*
X108324815Y-53238094D02*
X108324815Y-52857142D01*
X108324815Y-52857142D02*
X108372434Y-52761904D01*
X108372434Y-52761904D02*
X108420053Y-52714285D01*
X108420053Y-52714285D02*
X108515291Y-52666666D01*
X108515291Y-52666666D02*
X108658148Y-52666666D01*
X108658148Y-52666666D02*
X108753386Y-52714285D01*
X108753386Y-52714285D02*
X108801005Y-52761904D01*
X108801005Y-52761904D02*
X108848624Y-52857142D01*
X108848624Y-52857142D02*
X108848624Y-53238094D01*
X109324815Y-51714285D02*
X109324815Y-52285713D01*
X109324815Y-51999999D02*
X108324815Y-51999999D01*
X108324815Y-51999999D02*
X108467672Y-52095237D01*
X108467672Y-52095237D02*
X108562910Y-52190475D01*
X108562910Y-52190475D02*
X108610529Y-52285713D01*
D11*
%TO.C,J5*%
X109349996Y-26825000D02*
X109349996Y-29485000D01*
X117029996Y-26825000D02*
X109349996Y-26825000D01*
X117029996Y-26825000D02*
X117029996Y-29485000D01*
X117029996Y-29485000D02*
X109349996Y-29485000D01*
X118299996Y-26825000D02*
X119629996Y-26825000D01*
X119629996Y-26825000D02*
X119629996Y-28155000D01*
%TO.C,A1*%
X86359996Y-25900000D02*
X86359996Y-28570000D01*
X86359996Y-31110000D02*
X86359996Y-69340000D01*
X86359996Y-69340000D02*
X91439996Y-69340000D01*
X89029996Y-28570000D02*
X86359996Y-28570000D01*
X89029996Y-31110000D02*
X86359996Y-31110000D01*
X89029996Y-31110000D02*
X89029996Y-28570000D01*
X89029996Y-31110000D02*
X89029996Y-66670000D01*
X89029996Y-66670000D02*
X86359996Y-66670000D01*
X91439996Y-61460000D02*
X99319996Y-61460000D01*
X91439996Y-71880000D02*
X91439996Y-61460000D01*
X99319996Y-61460000D02*
X99319996Y-71880000D01*
X99319996Y-71880000D02*
X91439996Y-71880000D01*
X101729996Y-28570000D02*
X101729996Y-66670000D01*
X101729996Y-28570000D02*
X104399996Y-28570000D01*
X101729996Y-66670000D02*
X104399996Y-66670000D01*
X104399996Y-25900000D02*
X86359996Y-25900000D01*
X104399996Y-69340000D02*
X99319996Y-69340000D01*
X104399996Y-69340000D02*
X104399996Y-25900000D01*
%TO.C,J3*%
X109189996Y-43015000D02*
X109189996Y-48985000D01*
X109189996Y-48985000D02*
X121809996Y-48985000D01*
X109199996Y-46725000D02*
X109949996Y-46725000D01*
X109199996Y-48225000D02*
X109199996Y-48975000D01*
X109199996Y-48975000D02*
X110999996Y-48975000D01*
X109949996Y-43775000D02*
X115499996Y-43775000D01*
X109949996Y-46725000D02*
X109949996Y-43775000D01*
X110999996Y-48225000D02*
X109199996Y-48225000D01*
X110999996Y-48975000D02*
X110999996Y-48225000D01*
X112499996Y-48225000D02*
X112499996Y-48975000D01*
X112499996Y-48975000D02*
X118499996Y-48975000D01*
X118499996Y-48225000D02*
X112499996Y-48225000D01*
X118499996Y-48975000D02*
X118499996Y-48225000D01*
X119999996Y-48225000D02*
X119999996Y-48975000D01*
X119999996Y-48975000D02*
X121799996Y-48975000D01*
X120849996Y-49275000D02*
X122099996Y-49275000D01*
X121049996Y-43775000D02*
X115499996Y-43775000D01*
X121049996Y-46725000D02*
X121049996Y-43775000D01*
X121799996Y-46725000D02*
X121049996Y-46725000D01*
X121799996Y-48225000D02*
X119999996Y-48225000D01*
X121799996Y-48975000D02*
X121799996Y-48225000D01*
X121809996Y-43015000D02*
X109189996Y-43015000D01*
X121809996Y-48985000D02*
X121809996Y-43015000D01*
X122099996Y-49275000D02*
X122099996Y-48025000D01*
%TO.C,J1*%
X110419996Y-66605000D02*
X118159996Y-66605000D01*
X110419996Y-69205000D02*
X110419996Y-66605000D01*
X110419996Y-71805000D02*
X110419996Y-70475000D01*
X111749996Y-71805000D02*
X110419996Y-71805000D01*
X113019996Y-69205000D02*
X110419996Y-69205000D01*
X113019996Y-71805000D02*
X113019996Y-69205000D01*
X113019996Y-71805000D02*
X118159996Y-71805000D01*
X118159996Y-71805000D02*
X118159996Y-66605000D01*
%TO.C,J4*%
X109189996Y-55465000D02*
X109189996Y-61435000D01*
X109189996Y-61435000D02*
X121809996Y-61435000D01*
X109199996Y-59175000D02*
X109949996Y-59175000D01*
X109199996Y-60675000D02*
X109199996Y-61425000D01*
X109199996Y-61425000D02*
X110999996Y-61425000D01*
X109949996Y-56225000D02*
X115499996Y-56225000D01*
X109949996Y-59175000D02*
X109949996Y-56225000D01*
X110999996Y-60675000D02*
X109199996Y-60675000D01*
X110999996Y-61425000D02*
X110999996Y-60675000D01*
X112499996Y-60675000D02*
X112499996Y-61425000D01*
X112499996Y-61425000D02*
X118499996Y-61425000D01*
X118499996Y-60675000D02*
X112499996Y-60675000D01*
X118499996Y-61425000D02*
X118499996Y-60675000D01*
X119999996Y-60675000D02*
X119999996Y-61425000D01*
X119999996Y-61425000D02*
X121799996Y-61425000D01*
X120849996Y-61725000D02*
X122099996Y-61725000D01*
X121049996Y-56225000D02*
X115499996Y-56225000D01*
X121049996Y-59175000D02*
X121049996Y-56225000D01*
X121799996Y-59175000D02*
X121049996Y-59175000D01*
X121799996Y-60675000D02*
X119999996Y-60675000D01*
X121799996Y-61425000D02*
X121799996Y-60675000D01*
X121809996Y-55465000D02*
X109189996Y-55465000D01*
X121809996Y-61435000D02*
X121809996Y-55465000D01*
X122099996Y-61725000D02*
X122099996Y-60475000D01*
%TO.C,J2*%
X109899996Y-32700000D02*
X109899996Y-33950000D01*
X110189996Y-32990000D02*
X110189996Y-38960000D01*
X110189996Y-38960000D02*
X117809996Y-38960000D01*
X110199996Y-33000000D02*
X110199996Y-33750000D01*
X110199996Y-33750000D02*
X111999996Y-33750000D01*
X110199996Y-35250000D02*
X110949996Y-35250000D01*
X110949996Y-35250000D02*
X110949996Y-36590000D01*
X111149996Y-32700000D02*
X109899996Y-32700000D01*
X111999996Y-33000000D02*
X110199996Y-33000000D01*
X111999996Y-33750000D02*
X111999996Y-33000000D01*
X113499996Y-33000000D02*
X113499996Y-33750000D01*
X113499996Y-33750000D02*
X114499996Y-33750000D01*
X113999996Y-38200000D02*
X112009996Y-38200000D01*
X114499996Y-33000000D02*
X113499996Y-33000000D01*
X114499996Y-33750000D02*
X114499996Y-33000000D01*
X115999996Y-33000000D02*
X115999996Y-33750000D01*
X115999996Y-33750000D02*
X117799996Y-33750000D01*
X117049996Y-35250000D02*
X117049996Y-38200000D01*
X117049996Y-38200000D02*
X113999996Y-38200000D01*
X117799996Y-33000000D02*
X115999996Y-33000000D01*
X117799996Y-33750000D02*
X117799996Y-33000000D01*
X117799996Y-35250000D02*
X117049996Y-35250000D01*
X117809996Y-32990000D02*
X110189996Y-32990000D01*
X117809996Y-38960000D02*
X117809996Y-32990000D01*
%TO.C,R1*%
X105129996Y-49230000D02*
X105129996Y-55770000D01*
X105129996Y-55770000D02*
X107869996Y-55770000D01*
X106499996Y-45920000D02*
X106499996Y-49230000D01*
X106499996Y-59080000D02*
X106499996Y-55770000D01*
X107869996Y-49230000D02*
X105129996Y-49230000D01*
X107869996Y-55770000D02*
X107869996Y-49230000D01*
%TD*%
M02*
