%TF.GenerationSoftware,KiCad,Pcbnew,8.0.0*%
%TF.CreationDate,2024-03-28T15:12:29-07:00*%
%TF.ProjectId,stepper_controller_pcb,73746570-7065-4725-9f63-6f6e74726f6c,rev?*%
%TF.SameCoordinates,Original*%
%TF.FileFunction,Copper,L2,Bot*%
%TF.FilePolarity,Positive*%
%FSLAX46Y46*%
G04 Gerber Fmt 4.6, Leading zero omitted, Abs format (unit mm)*
G04 Created by KiCad (PCBNEW 8.0.0) date 2024-03-28 15:12:29*
%MOMM*%
%LPD*%
G01*
G04 APERTURE LIST*
G04 Aperture macros list*
%AMRoundRect*
0 Rectangle with rounded corners*
0 $1 Rounding radius*
0 $2 $3 $4 $5 $6 $7 $8 $9 X,Y pos of 4 corners*
0 Add a 4 corners polygon primitive as box body*
4,1,4,$2,$3,$4,$5,$6,$7,$8,$9,$2,$3,0*
0 Add four circle primitives for the rounded corners*
1,1,$1+$1,$2,$3*
1,1,$1+$1,$4,$5*
1,1,$1+$1,$6,$7*
1,1,$1+$1,$8,$9*
0 Add four rect primitives between the rounded corners*
20,1,$1+$1,$2,$3,$4,$5,0*
20,1,$1+$1,$4,$5,$6,$7,0*
20,1,$1+$1,$6,$7,$8,$9,0*
20,1,$1+$1,$8,$9,$2,$3,0*%
G04 Aperture macros list end*
%TA.AperFunction,ComponentPad*%
%ADD10R,1.700000X1.700000*%
%TD*%
%TA.AperFunction,ComponentPad*%
%ADD11O,1.700000X1.700000*%
%TD*%
%TA.AperFunction,ComponentPad*%
%ADD12R,1.600000X1.600000*%
%TD*%
%TA.AperFunction,ComponentPad*%
%ADD13O,1.600000X1.600000*%
%TD*%
%TA.AperFunction,ComponentPad*%
%ADD14RoundRect,0.250000X0.600000X0.725000X-0.600000X0.725000X-0.600000X-0.725000X0.600000X-0.725000X0*%
%TD*%
%TA.AperFunction,ComponentPad*%
%ADD15O,1.700000X1.950000*%
%TD*%
%TA.AperFunction,ComponentPad*%
%ADD16RoundRect,0.250000X-0.600000X-0.750000X0.600000X-0.750000X0.600000X0.750000X-0.600000X0.750000X0*%
%TD*%
%TA.AperFunction,ComponentPad*%
%ADD17O,1.700000X2.000000*%
%TD*%
%TA.AperFunction,ComponentPad*%
%ADD18C,1.600000*%
%TD*%
%TA.AperFunction,Conductor*%
%ADD19C,0.500000*%
%TD*%
%TA.AperFunction,Conductor*%
%ADD20C,0.300000*%
%TD*%
%TA.AperFunction,Conductor*%
%ADD21C,0.400000*%
%TD*%
%TA.AperFunction,Conductor*%
%ADD22C,0.200000*%
%TD*%
%TA.AperFunction,Conductor*%
%ADD23C,0.250000*%
%TD*%
%TA.AperFunction,Conductor*%
%ADD24C,0.350000*%
%TD*%
G04 APERTURE END LIST*
D10*
%TO.P,J5,1,Pin_1*%
%TO.N,ENA_*%
X118299996Y-28155000D03*
D11*
%TO.P,J5,2,Pin_2*%
%TO.N,UART_TX*%
X115759996Y-28155000D03*
%TO.P,J5,3,Pin_3*%
%TO.N,UART_RX*%
X113219996Y-28155000D03*
%TO.P,J5,4,Pin_4*%
%TO.N,+5V*%
X110679996Y-28155000D03*
%TD*%
D12*
%TO.P,A1,1,D1/TX*%
%TO.N,UART_TX*%
X87759996Y-29840000D03*
D13*
%TO.P,A1,2,D0/RX*%
%TO.N,UART_RX*%
X87759996Y-32380000D03*
%TO.P,A1,3,~{RESET}*%
%TO.N,unconnected-(A1-~{RESET}-Pad3)*%
X87759996Y-34920000D03*
%TO.P,A1,4,GND*%
%TO.N,ENA_*%
X87759996Y-37460000D03*
%TO.P,A1,5,D2*%
%TO.N,ENA*%
X87759996Y-40000000D03*
%TO.P,A1,6,D3*%
%TO.N,PULSE_X*%
X87759996Y-42540000D03*
%TO.P,A1,7,D4*%
%TO.N,DIR_X*%
X87759996Y-45080000D03*
%TO.P,A1,8,D5*%
%TO.N,PULSE_Y*%
X87759996Y-47620000D03*
%TO.P,A1,9,D6*%
%TO.N,DIR_Y*%
X87759996Y-50160000D03*
%TO.P,A1,10,D7*%
%TO.N,unconnected-(A1-D7-Pad10)*%
X87759996Y-52700000D03*
%TO.P,A1,11,D8*%
%TO.N,unconnected-(A1-D8-Pad11)*%
X87759996Y-55240000D03*
%TO.P,A1,12,D9*%
%TO.N,unconnected-(A1-D9-Pad12)*%
X87759996Y-57780000D03*
%TO.P,A1,13,D10*%
%TO.N,unconnected-(A1-D10-Pad13)*%
X87759996Y-60320000D03*
%TO.P,A1,14,D11*%
%TO.N,unconnected-(A1-D11-Pad14)*%
X87759996Y-62860000D03*
%TO.P,A1,15,D12*%
%TO.N,unconnected-(A1-D12-Pad15)*%
X87759996Y-65400000D03*
%TO.P,A1,16,D13*%
%TO.N,unconnected-(A1-D13-Pad16)*%
X102999996Y-65400000D03*
%TO.P,A1,17,3V3*%
%TO.N,unconnected-(A1-3V3-Pad17)*%
X102999996Y-62860000D03*
%TO.P,A1,18,AREF*%
%TO.N,unconnected-(A1-AREF-Pad18)*%
X102999996Y-60320000D03*
%TO.P,A1,19,A0*%
%TO.N,unconnected-(A1-A0-Pad19)*%
X102999996Y-57780000D03*
%TO.P,A1,20,A1*%
%TO.N,unconnected-(A1-A1-Pad20)*%
X102999996Y-55240000D03*
%TO.P,A1,21,A2*%
%TO.N,unconnected-(A1-A2-Pad21)*%
X102999996Y-52700000D03*
%TO.P,A1,22,A3*%
%TO.N,unconnected-(A1-A3-Pad22)*%
X102999996Y-50160000D03*
%TO.P,A1,23,A4*%
%TO.N,unconnected-(A1-A4-Pad23)*%
X102999996Y-47620000D03*
%TO.P,A1,24,A5*%
%TO.N,unconnected-(A1-A5-Pad24)*%
X102999996Y-45080000D03*
%TO.P,A1,25,A6*%
%TO.N,unconnected-(A1-A6-Pad25)*%
X102999996Y-42540000D03*
%TO.P,A1,26,A7*%
%TO.N,unconnected-(A1-A7-Pad26)*%
X102999996Y-40000000D03*
%TO.P,A1,27,+5V*%
%TO.N,+5V*%
X102999996Y-37460000D03*
%TO.P,A1,28,~{RESET}*%
%TO.N,unconnected-(A1-~{RESET}-Pad28)*%
X102999996Y-34920000D03*
%TO.P,A1,29,GND*%
%TO.N,unconnected-(A1-GND-Pad29)*%
X102999996Y-32380000D03*
%TO.P,A1,30,VIN*%
%TO.N,Vcc*%
X102999996Y-29840000D03*
%TD*%
D14*
%TO.P,J3,1,Pin_1*%
%TO.N,+5V*%
X119249996Y-46525000D03*
D15*
%TO.P,J3,2,Pin_2*%
%TO.N,PULSE_X*%
X116749996Y-46525000D03*
%TO.P,J3,3,Pin_3*%
%TO.N,DIR_X*%
X114249996Y-46525000D03*
%TO.P,J3,4,Pin_4*%
%TO.N,ENA*%
X111749996Y-46525000D03*
%TD*%
D10*
%TO.P,J1,1,Pin_1*%
%TO.N,ENA_*%
X111749996Y-70475000D03*
D11*
%TO.P,J1,2,Pin_2*%
X111749996Y-67935000D03*
%TO.P,J1,3,Pin_3*%
%TO.N,DIR_X*%
X114289996Y-70475000D03*
%TO.P,J1,4,Pin_4*%
%TO.N,DIR_Y*%
X114289996Y-67935000D03*
%TO.P,J1,5,Pin_5*%
%TO.N,PULSE_X*%
X116829996Y-70475000D03*
%TO.P,J1,6,Pin_6*%
%TO.N,PULSE_Y*%
X116829996Y-67935000D03*
%TD*%
D14*
%TO.P,J4,1,Pin_1*%
%TO.N,+5V*%
X119249996Y-58975000D03*
D15*
%TO.P,J4,2,Pin_2*%
%TO.N,PULSE_Y*%
X116749996Y-58975000D03*
%TO.P,J4,3,Pin_3*%
%TO.N,DIR_Y*%
X114249996Y-58975000D03*
%TO.P,J4,4,Pin_4*%
%TO.N,ENA_*%
X111749996Y-58975000D03*
%TD*%
D16*
%TO.P,J2,1,Pin_1*%
%TO.N,Vcc*%
X112749996Y-35450000D03*
D17*
%TO.P,J2,2,Pin_2*%
%TO.N,ENA_*%
X115249996Y-35450000D03*
%TD*%
D18*
%TO.P,R1,1*%
%TO.N,ENA*%
X106499996Y-44880000D03*
D13*
%TO.P,R1,2*%
%TO.N,ENA_*%
X106499996Y-60120000D03*
%TD*%
D19*
%TO.N,+5V*%
X114077498Y-53697498D02*
X114077498Y-53802502D01*
D20*
X87119996Y-46300000D02*
X85999996Y-45180000D01*
D19*
X119249996Y-48525000D02*
X114077498Y-53697498D01*
X99499996Y-33960000D02*
X102999996Y-37460000D01*
X114077498Y-53802502D02*
X119249996Y-58975000D01*
X110679996Y-28155000D02*
X100344996Y-28155000D01*
X114077498Y-53697498D02*
X113774996Y-54000000D01*
X119249996Y-46525000D02*
X119249996Y-48525000D01*
D20*
X88950000Y-46300000D02*
X87119996Y-46300000D01*
D19*
X88950000Y-46300000D02*
X96650000Y-54000000D01*
D20*
X96650000Y-54000000D02*
X96999996Y-54000000D01*
D19*
X99499996Y-29000000D02*
X99499996Y-33960000D01*
D21*
X101749996Y-36210000D02*
X86800000Y-36210000D01*
X85999996Y-37010004D02*
X86780000Y-36230000D01*
X113774996Y-54000000D02*
X96999996Y-54000000D01*
D19*
X100344996Y-28155000D02*
X99499996Y-29000000D01*
D20*
X85999996Y-45180000D02*
X85999996Y-37010004D01*
D19*
X102999996Y-37460000D02*
X101749996Y-36210000D01*
D20*
%TO.N,ENA*%
X105099996Y-43980000D02*
X104929996Y-43810000D01*
D19*
X91739996Y-43980000D02*
X87759996Y-40000000D01*
X105999996Y-44880000D02*
X105099996Y-43980000D01*
X108144996Y-46525000D02*
X106499996Y-44880000D01*
D20*
X91909996Y-43810000D02*
X91739996Y-43980000D01*
D19*
X111749996Y-46525000D02*
X108144996Y-46525000D01*
D21*
X104929996Y-43810000D02*
X91909996Y-43810000D01*
D19*
%TO.N,PULSE_X*%
X117499996Y-44500000D02*
X120999996Y-44500000D01*
X116749996Y-45250000D02*
X117499996Y-44500000D01*
D21*
X111439996Y-51440000D02*
X96659996Y-51440000D01*
X96659996Y-51440000D02*
X87759996Y-42540000D01*
D19*
X111499996Y-51500000D02*
X111774996Y-51500000D01*
X120999996Y-44500000D02*
X121999996Y-45500000D01*
X121999996Y-65015000D02*
X116539996Y-70475000D01*
X111499996Y-51500000D02*
X111899996Y-51500000D01*
D21*
X111499996Y-51500000D02*
X111439996Y-51440000D01*
D19*
X111774996Y-51500000D02*
X116749996Y-46525000D01*
X121999996Y-45500000D02*
X121999996Y-65015000D01*
X116749996Y-46525000D02*
X116749996Y-45250000D01*
%TO.N,DIR_X*%
X122999996Y-66530004D02*
X122999996Y-44500000D01*
X114249996Y-44750000D02*
X114249996Y-46525000D01*
D20*
X87199996Y-38800000D02*
X88934310Y-38800000D01*
D19*
X119769996Y-41270000D02*
X121999996Y-43500000D01*
X122999996Y-44500000D02*
X121999996Y-43500000D01*
D21*
X91404310Y-41270000D02*
X119769996Y-41270000D01*
D19*
X113999996Y-70475000D02*
X115404996Y-71880000D01*
X115404996Y-71880000D02*
X117650000Y-71880000D01*
D20*
X88934310Y-38800000D02*
X91404310Y-41270000D01*
X87759996Y-45080000D02*
X86521117Y-43841121D01*
D19*
X117650000Y-71880000D02*
X122999996Y-66530004D01*
X121999996Y-43500000D02*
X115499996Y-43500000D01*
D20*
X86521117Y-43841121D02*
X86521117Y-39478879D01*
X86521117Y-39478879D02*
X87199996Y-38800000D01*
D19*
X115499996Y-43500000D02*
X114249996Y-44750000D01*
%TO.N,Vcc*%
X102999996Y-29840000D02*
X107139996Y-29840000D01*
X107139996Y-29840000D02*
X112749996Y-35450000D01*
D22*
%TO.N,DIR_Y*%
X114289996Y-59015000D02*
X114249996Y-58975000D01*
D19*
X114289996Y-67935000D02*
X114289996Y-59015000D01*
X112774996Y-57500000D02*
X114249996Y-58975000D01*
X106352229Y-58500000D02*
X107352229Y-57500000D01*
D21*
X105822229Y-59030000D02*
X106352229Y-58500000D01*
D19*
X107352229Y-57500000D02*
X112774996Y-57500000D01*
X87759996Y-50160000D02*
X96629996Y-59030000D01*
X113749996Y-67685000D02*
X113999996Y-67935000D01*
D21*
X96629996Y-59030000D02*
X105822229Y-59030000D01*
D22*
%TO.N,PULSE_Y*%
X116829996Y-59055000D02*
X116749996Y-58975000D01*
D19*
X116829996Y-67935000D02*
X116829996Y-59055000D01*
X116539996Y-59265000D02*
X116249996Y-58975000D01*
X96639996Y-56500000D02*
X114274996Y-56500000D01*
X114274996Y-56500000D02*
X116749996Y-58975000D01*
X87759996Y-47620000D02*
X96639996Y-56500000D01*
%TO.N,UART_TX*%
X87759996Y-27740000D02*
X91499996Y-24000000D01*
X111604996Y-24000000D02*
X115759996Y-28155000D01*
X87759996Y-29840000D02*
X87759996Y-27740000D01*
X91499996Y-24000000D02*
X111604996Y-24000000D01*
%TO.N,UART_RX*%
X91999996Y-25500000D02*
X89999996Y-27500000D01*
X110564996Y-25500000D02*
X91999996Y-25500000D01*
X113219996Y-28155000D02*
X110564996Y-25500000D01*
X89999996Y-31500000D02*
X89119996Y-32380000D01*
X89119996Y-32380000D02*
X87759996Y-32380000D01*
X89999996Y-27500000D02*
X89999996Y-31500000D01*
%TO.N,ENA_*%
X111749996Y-67935000D02*
X106564996Y-67935000D01*
D20*
X111749996Y-59389996D02*
X111749996Y-58975000D01*
D22*
X106499996Y-60120000D02*
X108210000Y-58409996D01*
D19*
X87759996Y-37460000D02*
X100920000Y-37460000D01*
X112970000Y-67130000D02*
X112730000Y-66890000D01*
D20*
X113000000Y-67160000D02*
X113000000Y-68934996D01*
D19*
X117999996Y-73000000D02*
X124499996Y-66500000D01*
D23*
X102410000Y-38690000D02*
X101180000Y-37460000D01*
D19*
X118299996Y-32400000D02*
X116849996Y-33850000D01*
X112139996Y-38560000D02*
X115249996Y-35450000D01*
X106564996Y-67935000D02*
X106000000Y-68499996D01*
X117449996Y-35450000D02*
X115249996Y-35450000D01*
X106000000Y-68499996D02*
X106000000Y-72000004D01*
D20*
X112730000Y-60550000D02*
X112820000Y-60460000D01*
D23*
X101180000Y-37460000D02*
X100920000Y-37460000D01*
D19*
X116849996Y-33850000D02*
X117999996Y-32700000D01*
X111749996Y-70185000D02*
X112730000Y-69204996D01*
X112730000Y-66890000D02*
X112730000Y-60550000D01*
D22*
X108340000Y-58260000D02*
X111034996Y-58260000D01*
X108210000Y-58390000D02*
X108340000Y-58260000D01*
D20*
X113000000Y-68934996D02*
X112730000Y-69204996D01*
D19*
X106999996Y-73000000D02*
X117999996Y-73000000D01*
X118299996Y-28155000D02*
X118299996Y-32400000D01*
D22*
X111749996Y-70475000D02*
X111749996Y-70185000D01*
D23*
X112139996Y-38560000D02*
X112009996Y-38690000D01*
D22*
X111034996Y-58260000D02*
X111749996Y-58975000D01*
D19*
X124499996Y-42500000D02*
X117449996Y-35450000D01*
D22*
X108210000Y-58409996D02*
X108210000Y-58390000D01*
D19*
X124499996Y-66500000D02*
X124499996Y-42500000D01*
D20*
X112970000Y-67130000D02*
X113000000Y-67160000D01*
D19*
X106000000Y-72000004D02*
X106999996Y-73000000D01*
X115249996Y-35450000D02*
X118299996Y-32400000D01*
X112820000Y-60460000D02*
X111749996Y-59389996D01*
D24*
X112009996Y-38690000D02*
X102410000Y-38690000D01*
%TD*%
%TA.AperFunction,Conductor*%
%TO.N,gnd!*%
G36*
X124963655Y-21999698D02*
G01*
X125009423Y-22052491D01*
X125020639Y-22103387D01*
X125122551Y-41761185D01*
X125103215Y-41828326D01*
X125050649Y-41874354D01*
X124981542Y-41884656D01*
X124917837Y-41855961D01*
X124910872Y-41849509D01*
X121422221Y-38360858D01*
X117928412Y-34867048D01*
X117928411Y-34867047D01*
X117928409Y-34867045D01*
X117849507Y-34814327D01*
X117846351Y-34812218D01*
X117805491Y-34784916D01*
X117805490Y-34784915D01*
X117805488Y-34784914D01*
X117805486Y-34784913D01*
X117668913Y-34728343D01*
X117668903Y-34728340D01*
X117523916Y-34699500D01*
X117523914Y-34699500D01*
X117361225Y-34699500D01*
X117294186Y-34679815D01*
X117248431Y-34627011D01*
X117238487Y-34557853D01*
X117267512Y-34494297D01*
X117273543Y-34487820D01*
X117287861Y-34473502D01*
X117328410Y-34432953D01*
X117328412Y-34432952D01*
X117875281Y-33886083D01*
X118882948Y-32878415D01*
X118917639Y-32826496D01*
X118965080Y-32755495D01*
X119018685Y-32626082D01*
X119021655Y-32618912D01*
X119050496Y-32473917D01*
X119050496Y-32326082D01*
X119050496Y-29629499D01*
X119070181Y-29562460D01*
X119122985Y-29516705D01*
X119174496Y-29505499D01*
X119197867Y-29505499D01*
X119197868Y-29505499D01*
X119257479Y-29499091D01*
X119392327Y-29448796D01*
X119507542Y-29362546D01*
X119593792Y-29247331D01*
X119644087Y-29112483D01*
X119650496Y-29052873D01*
X119650495Y-27257128D01*
X119644087Y-27197517D01*
X119642806Y-27194083D01*
X119593793Y-27062671D01*
X119593789Y-27062664D01*
X119507543Y-26947455D01*
X119507540Y-26947452D01*
X119392331Y-26861206D01*
X119392324Y-26861202D01*
X119257478Y-26810908D01*
X119257479Y-26810908D01*
X119197879Y-26804501D01*
X119197877Y-26804500D01*
X119197869Y-26804500D01*
X119197860Y-26804500D01*
X117402125Y-26804500D01*
X117402119Y-26804501D01*
X117342512Y-26810908D01*
X117207667Y-26861202D01*
X117207660Y-26861206D01*
X117092451Y-26947452D01*
X117092448Y-26947455D01*
X117006202Y-27062664D01*
X117006199Y-27062669D01*
X116957185Y-27194083D01*
X116915313Y-27250016D01*
X116849849Y-27274433D01*
X116781576Y-27259581D01*
X116753322Y-27238430D01*
X116631398Y-27116506D01*
X116631391Y-27116501D01*
X116437830Y-26980967D01*
X116437826Y-26980965D01*
X116437824Y-26980964D01*
X116223659Y-26881097D01*
X116223655Y-26881096D01*
X116223651Y-26881094D01*
X115995409Y-26819938D01*
X115995399Y-26819936D01*
X115759997Y-26799341D01*
X115759994Y-26799341D01*
X115546981Y-26817977D01*
X115478481Y-26804210D01*
X115448493Y-26782130D01*
X113272650Y-24606286D01*
X121149500Y-24606286D01*
X121178093Y-24786819D01*
X121182754Y-24816243D01*
X121230172Y-24962181D01*
X121248444Y-25018414D01*
X121344951Y-25207820D01*
X121469890Y-25379786D01*
X121620213Y-25530109D01*
X121792179Y-25655048D01*
X121792181Y-25655049D01*
X121792184Y-25655051D01*
X121981588Y-25751557D01*
X122183757Y-25817246D01*
X122393713Y-25850500D01*
X122393714Y-25850500D01*
X122606286Y-25850500D01*
X122606287Y-25850500D01*
X122816243Y-25817246D01*
X123018412Y-25751557D01*
X123207816Y-25655051D01*
X123229789Y-25639086D01*
X123379786Y-25530109D01*
X123379788Y-25530106D01*
X123379792Y-25530104D01*
X123530104Y-25379792D01*
X123530106Y-25379788D01*
X123530109Y-25379786D01*
X123655048Y-25207820D01*
X123655047Y-25207820D01*
X123655051Y-25207816D01*
X123751557Y-25018412D01*
X123817246Y-24816243D01*
X123850500Y-24606287D01*
X123850500Y-24393713D01*
X123817246Y-24183757D01*
X123751557Y-23981588D01*
X123655051Y-23792184D01*
X123655049Y-23792181D01*
X123655048Y-23792179D01*
X123530109Y-23620213D01*
X123379786Y-23469890D01*
X123207820Y-23344951D01*
X123018414Y-23248444D01*
X123018413Y-23248443D01*
X123018412Y-23248443D01*
X122816243Y-23182754D01*
X122816241Y-23182753D01*
X122816240Y-23182753D01*
X122654957Y-23157208D01*
X122606287Y-23149500D01*
X122393713Y-23149500D01*
X122345042Y-23157208D01*
X122183760Y-23182753D01*
X121981585Y-23248444D01*
X121792179Y-23344951D01*
X121620213Y-23469890D01*
X121469890Y-23620213D01*
X121344951Y-23792179D01*
X121248444Y-23981585D01*
X121182753Y-24183760D01*
X121149500Y-24393713D01*
X121149500Y-24606286D01*
X113272650Y-24606286D01*
X112083417Y-23417052D01*
X112083416Y-23417051D01*
X111975506Y-23344949D01*
X111975503Y-23344947D01*
X111960491Y-23334916D01*
X111960486Y-23334913D01*
X111823913Y-23278343D01*
X111823903Y-23278340D01*
X111678916Y-23249500D01*
X111678914Y-23249500D01*
X91426078Y-23249500D01*
X91426072Y-23249500D01*
X91397238Y-23255234D01*
X91397239Y-23255235D01*
X91281089Y-23278339D01*
X91281079Y-23278342D01*
X91201077Y-23311479D01*
X91201078Y-23311480D01*
X91144505Y-23334914D01*
X91144491Y-23334921D01*
X91129488Y-23344947D01*
X91129486Y-23344949D01*
X91021575Y-23417051D01*
X87177046Y-27261580D01*
X87177040Y-27261588D01*
X87127808Y-27335268D01*
X87127809Y-27335269D01*
X87094917Y-27384496D01*
X87094910Y-27384508D01*
X87038338Y-27521086D01*
X87038336Y-27521092D01*
X87009496Y-27666079D01*
X87009496Y-28417648D01*
X86989811Y-28484687D01*
X86937007Y-28530442D01*
X86898751Y-28540938D01*
X86852512Y-28545909D01*
X86717667Y-28596202D01*
X86717660Y-28596206D01*
X86602451Y-28682452D01*
X86602448Y-28682455D01*
X86516202Y-28797664D01*
X86516198Y-28797671D01*
X86465904Y-28932517D01*
X86459497Y-28992116D01*
X86459496Y-28992135D01*
X86459496Y-30687870D01*
X86459497Y-30687876D01*
X86465904Y-30747483D01*
X86516198Y-30882328D01*
X86516202Y-30882335D01*
X86602448Y-30997544D01*
X86602451Y-30997547D01*
X86717660Y-31083793D01*
X86717667Y-31083797D01*
X86762614Y-31100561D01*
X86852513Y-31134091D01*
X86887592Y-31137862D01*
X86952140Y-31164599D01*
X86991989Y-31221991D01*
X86994484Y-31291816D01*
X86958832Y-31351905D01*
X86945460Y-31362725D01*
X86920854Y-31379954D01*
X86759950Y-31540858D01*
X86629428Y-31727265D01*
X86629427Y-31727267D01*
X86533257Y-31933502D01*
X86533254Y-31933511D01*
X86474362Y-32153302D01*
X86474360Y-32153313D01*
X86454528Y-32379998D01*
X86454528Y-32380001D01*
X86474360Y-32606686D01*
X86474362Y-32606697D01*
X86533254Y-32826488D01*
X86533256Y-32826493D01*
X86533257Y-32826496D01*
X86557469Y-32878418D01*
X86629427Y-33032732D01*
X86629428Y-33032734D01*
X86759950Y-33219141D01*
X86920854Y-33380045D01*
X86920857Y-33380047D01*
X87107262Y-33510568D01*
X87165271Y-33537618D01*
X87217710Y-33583791D01*
X87236862Y-33650984D01*
X87216646Y-33717865D01*
X87165271Y-33762382D01*
X87107263Y-33789431D01*
X87107261Y-33789432D01*
X86920854Y-33919954D01*
X86759950Y-34080858D01*
X86629428Y-34267265D01*
X86629427Y-34267267D01*
X86533257Y-34473502D01*
X86533254Y-34473511D01*
X86474362Y-34693302D01*
X86474360Y-34693313D01*
X86454528Y-34919998D01*
X86454528Y-34920001D01*
X86474360Y-35146686D01*
X86474362Y-35146697D01*
X86533254Y-35366488D01*
X86533256Y-35366492D01*
X86533257Y-35366496D01*
X86533890Y-35367853D01*
X86555028Y-35413185D01*
X86565519Y-35482262D01*
X86536998Y-35546046D01*
X86490101Y-35580148D01*
X86468191Y-35589223D01*
X86468183Y-35589228D01*
X86353459Y-35665884D01*
X86333457Y-35685886D01*
X85455884Y-36563457D01*
X85455883Y-36563458D01*
X85379218Y-36678196D01*
X85326417Y-36805671D01*
X85326414Y-36805681D01*
X85299496Y-36941007D01*
X85299496Y-36941010D01*
X85299496Y-37078998D01*
X85299496Y-37079000D01*
X85299495Y-37079000D01*
X85326414Y-37214326D01*
X85326416Y-37214332D01*
X85340057Y-37247264D01*
X85349496Y-37294717D01*
X85349496Y-45244069D01*
X85365892Y-45326496D01*
X85372241Y-45358410D01*
X85372241Y-45358419D01*
X85372243Y-45358419D01*
X85374495Y-45369745D01*
X85423529Y-45488125D01*
X85471206Y-45559479D01*
X85483808Y-45578340D01*
X85494722Y-45594673D01*
X85494723Y-45594674D01*
X86614720Y-46714669D01*
X86653825Y-46753774D01*
X86687310Y-46815097D01*
X86682326Y-46884789D01*
X86667720Y-46912577D01*
X86629429Y-46967263D01*
X86533257Y-47173502D01*
X86533254Y-47173511D01*
X86474362Y-47393302D01*
X86474360Y-47393313D01*
X86454528Y-47619998D01*
X86454528Y-47620001D01*
X86474360Y-47846686D01*
X86474362Y-47846697D01*
X86533254Y-48066488D01*
X86533257Y-48066497D01*
X86629427Y-48272732D01*
X86629428Y-48272734D01*
X86759950Y-48459141D01*
X86920854Y-48620045D01*
X86920857Y-48620047D01*
X87107262Y-48750568D01*
X87165271Y-48777618D01*
X87217710Y-48823791D01*
X87236862Y-48890984D01*
X87216646Y-48957865D01*
X87165271Y-49002381D01*
X87148268Y-49010310D01*
X87107263Y-49029431D01*
X87107261Y-49029432D01*
X86920854Y-49159954D01*
X86759950Y-49320858D01*
X86629428Y-49507265D01*
X86629427Y-49507267D01*
X86533257Y-49713502D01*
X86533254Y-49713511D01*
X86474362Y-49933302D01*
X86474360Y-49933313D01*
X86454528Y-50159998D01*
X86454528Y-50160001D01*
X86474360Y-50386686D01*
X86474362Y-50386697D01*
X86533254Y-50606488D01*
X86533257Y-50606497D01*
X86629427Y-50812732D01*
X86629428Y-50812734D01*
X86759950Y-50999141D01*
X86920854Y-51160045D01*
X86920857Y-51160047D01*
X87107262Y-51290568D01*
X87165271Y-51317618D01*
X87217710Y-51363791D01*
X87236862Y-51430984D01*
X87216646Y-51497865D01*
X87165271Y-51542382D01*
X87107263Y-51569431D01*
X87107261Y-51569432D01*
X86920854Y-51699954D01*
X86759950Y-51860858D01*
X86629428Y-52047265D01*
X86629427Y-52047267D01*
X86533257Y-52253502D01*
X86533254Y-52253511D01*
X86474362Y-52473302D01*
X86474360Y-52473313D01*
X86454528Y-52699998D01*
X86454528Y-52700001D01*
X86474360Y-52926686D01*
X86474362Y-52926697D01*
X86533254Y-53146488D01*
X86533257Y-53146497D01*
X86629427Y-53352732D01*
X86629428Y-53352734D01*
X86759950Y-53539141D01*
X86920854Y-53700045D01*
X86920857Y-53700047D01*
X87107262Y-53830568D01*
X87165271Y-53857618D01*
X87217710Y-53903791D01*
X87236862Y-53970984D01*
X87216646Y-54037865D01*
X87165271Y-54082382D01*
X87107263Y-54109431D01*
X87107261Y-54109432D01*
X86920854Y-54239954D01*
X86759950Y-54400858D01*
X86629428Y-54587266D01*
X86533257Y-54793502D01*
X86533254Y-54793511D01*
X86474362Y-55013302D01*
X86474360Y-55013313D01*
X86454528Y-55239998D01*
X86454528Y-55240001D01*
X86474360Y-55466686D01*
X86474362Y-55466697D01*
X86533254Y-55686488D01*
X86533257Y-55686497D01*
X86629427Y-55892732D01*
X86629428Y-55892734D01*
X86759950Y-56079141D01*
X86920854Y-56240045D01*
X86920857Y-56240047D01*
X87107262Y-56370568D01*
X87165271Y-56397618D01*
X87217710Y-56443791D01*
X87236862Y-56510984D01*
X87216646Y-56577865D01*
X87165271Y-56622382D01*
X87107263Y-56649431D01*
X87107261Y-56649432D01*
X86920854Y-56779954D01*
X86759950Y-56940858D01*
X86629428Y-57127265D01*
X86629427Y-57127267D01*
X86533257Y-57333502D01*
X86533254Y-57333511D01*
X86474362Y-57553302D01*
X86474360Y-57553313D01*
X86454528Y-57779998D01*
X86454528Y-57780001D01*
X86474360Y-58006686D01*
X86474362Y-58006697D01*
X86533254Y-58226488D01*
X86533257Y-58226497D01*
X86629427Y-58432732D01*
X86629428Y-58432734D01*
X86759950Y-58619141D01*
X86920854Y-58780045D01*
X86920857Y-58780047D01*
X87107262Y-58910568D01*
X87155344Y-58932989D01*
X87165271Y-58937618D01*
X87217710Y-58983791D01*
X87236862Y-59050984D01*
X87216646Y-59117865D01*
X87165271Y-59162382D01*
X87107263Y-59189431D01*
X87107261Y-59189432D01*
X86920854Y-59319954D01*
X86759950Y-59480858D01*
X86629428Y-59667265D01*
X86629427Y-59667267D01*
X86533257Y-59873502D01*
X86533254Y-59873511D01*
X86474362Y-60093302D01*
X86474360Y-60093313D01*
X86454528Y-60319998D01*
X86454528Y-60320001D01*
X86474360Y-60546686D01*
X86474362Y-60546697D01*
X86533254Y-60766488D01*
X86533257Y-60766497D01*
X86629427Y-60972732D01*
X86629428Y-60972734D01*
X86759950Y-61159141D01*
X86920854Y-61320045D01*
X86920857Y-61320047D01*
X87107262Y-61450568D01*
X87165271Y-61477618D01*
X87217710Y-61523791D01*
X87236862Y-61590984D01*
X87216646Y-61657865D01*
X87165271Y-61702382D01*
X87107263Y-61729431D01*
X87107261Y-61729432D01*
X86920854Y-61859954D01*
X86759950Y-62020858D01*
X86629428Y-62207265D01*
X86629427Y-62207267D01*
X86533257Y-62413502D01*
X86533254Y-62413511D01*
X86474362Y-62633302D01*
X86474360Y-62633313D01*
X86454528Y-62859998D01*
X86454528Y-62860001D01*
X86474360Y-63086686D01*
X86474362Y-63086697D01*
X86533254Y-63306488D01*
X86533257Y-63306497D01*
X86629427Y-63512732D01*
X86629428Y-63512734D01*
X86759950Y-63699141D01*
X86920854Y-63860045D01*
X86920857Y-63860047D01*
X87107262Y-63990568D01*
X87165271Y-64017618D01*
X87217710Y-64063791D01*
X87236862Y-64130984D01*
X87216646Y-64197865D01*
X87165271Y-64242382D01*
X87107263Y-64269431D01*
X87107261Y-64269432D01*
X86920854Y-64399954D01*
X86759950Y-64560858D01*
X86629428Y-64747265D01*
X86629427Y-64747267D01*
X86533257Y-64953502D01*
X86533254Y-64953511D01*
X86474362Y-65173302D01*
X86474360Y-65173313D01*
X86454528Y-65399998D01*
X86454528Y-65400001D01*
X86474360Y-65626686D01*
X86474362Y-65626697D01*
X86533254Y-65846488D01*
X86533257Y-65846497D01*
X86629427Y-66052732D01*
X86629428Y-66052734D01*
X86759950Y-66239141D01*
X86920854Y-66400045D01*
X86920857Y-66400047D01*
X87107262Y-66530568D01*
X87313500Y-66626739D01*
X87313505Y-66626740D01*
X87313507Y-66626741D01*
X87366411Y-66640916D01*
X87533304Y-66685635D01*
X87695226Y-66699801D01*
X87759994Y-66705468D01*
X87759996Y-66705468D01*
X87759998Y-66705468D01*
X87816669Y-66700509D01*
X87986688Y-66685635D01*
X88206492Y-66626739D01*
X88412730Y-66530568D01*
X88599135Y-66400047D01*
X88760043Y-66239139D01*
X88890564Y-66052734D01*
X88986735Y-65846496D01*
X89045631Y-65626692D01*
X89065464Y-65400000D01*
X89045631Y-65173308D01*
X88986735Y-64953504D01*
X88890564Y-64747266D01*
X88760043Y-64560861D01*
X88760041Y-64560858D01*
X88599137Y-64399954D01*
X88412730Y-64269432D01*
X88412724Y-64269429D01*
X88354721Y-64242382D01*
X88302281Y-64196210D01*
X88283129Y-64129017D01*
X88303344Y-64062135D01*
X88354721Y-64017618D01*
X88412730Y-63990568D01*
X88599135Y-63860047D01*
X88760043Y-63699139D01*
X88890564Y-63512734D01*
X88986735Y-63306496D01*
X89045631Y-63086692D01*
X89065464Y-62860000D01*
X89045631Y-62633308D01*
X88986735Y-62413504D01*
X88890564Y-62207266D01*
X88760043Y-62020861D01*
X88760041Y-62020858D01*
X88599137Y-61859954D01*
X88412730Y-61729432D01*
X88412724Y-61729429D01*
X88354721Y-61702382D01*
X88302281Y-61656210D01*
X88283129Y-61589017D01*
X88303344Y-61522135D01*
X88354721Y-61477618D01*
X88412730Y-61450568D01*
X88599135Y-61320047D01*
X88760043Y-61159139D01*
X88890564Y-60972734D01*
X88986735Y-60766496D01*
X89045631Y-60546692D01*
X89065464Y-60320000D01*
X89063076Y-60292710D01*
X89051646Y-60162058D01*
X89045631Y-60093308D01*
X88992043Y-59893313D01*
X88986737Y-59873511D01*
X88986734Y-59873502D01*
X88924452Y-59739939D01*
X88890564Y-59667266D01*
X88760043Y-59480861D01*
X88760041Y-59480858D01*
X88599137Y-59319954D01*
X88412730Y-59189432D01*
X88412724Y-59189429D01*
X88354721Y-59162382D01*
X88302281Y-59116210D01*
X88283129Y-59049017D01*
X88303344Y-58982135D01*
X88354721Y-58937618D01*
X88364648Y-58932989D01*
X88412730Y-58910568D01*
X88599135Y-58780047D01*
X88760043Y-58619139D01*
X88890564Y-58432734D01*
X88986735Y-58226496D01*
X89045631Y-58006692D01*
X89065464Y-57780000D01*
X89045631Y-57553308D01*
X88986735Y-57333504D01*
X88890564Y-57127266D01*
X88760043Y-56940861D01*
X88760041Y-56940858D01*
X88599137Y-56779954D01*
X88412730Y-56649432D01*
X88412724Y-56649429D01*
X88354721Y-56622382D01*
X88302281Y-56576210D01*
X88283129Y-56509017D01*
X88303344Y-56442135D01*
X88354721Y-56397618D01*
X88412730Y-56370568D01*
X88599135Y-56240047D01*
X88760043Y-56079139D01*
X88890564Y-55892734D01*
X88986735Y-55686496D01*
X89045631Y-55466692D01*
X89065464Y-55240000D01*
X89045631Y-55013308D01*
X88986735Y-54793504D01*
X88890564Y-54587266D01*
X88760043Y-54400861D01*
X88760041Y-54400858D01*
X88599137Y-54239954D01*
X88412730Y-54109432D01*
X88412724Y-54109429D01*
X88354721Y-54082382D01*
X88302281Y-54036210D01*
X88283129Y-53969017D01*
X88303344Y-53902135D01*
X88354721Y-53857618D01*
X88412730Y-53830568D01*
X88599135Y-53700047D01*
X88760043Y-53539139D01*
X88890564Y-53352734D01*
X88986735Y-53146496D01*
X89045631Y-52926692D01*
X89056219Y-52805670D01*
X89081670Y-52740604D01*
X89138261Y-52699626D01*
X89208023Y-52695747D01*
X89267427Y-52728799D01*
X96151576Y-59612948D01*
X96151580Y-59612951D01*
X96274494Y-59695080D01*
X96274507Y-59695087D01*
X96407102Y-59750009D01*
X96411083Y-59751658D01*
X96411087Y-59751658D01*
X96411088Y-59751659D01*
X96556075Y-59780500D01*
X96556078Y-59780500D01*
X96703915Y-59780500D01*
X96812596Y-59758881D01*
X96848908Y-59751658D01*
X96863367Y-59745668D01*
X96877201Y-59739939D01*
X96924653Y-59730500D01*
X101649975Y-59730500D01*
X101717014Y-59750185D01*
X101762769Y-59802989D01*
X101772713Y-59872147D01*
X101769750Y-59886593D01*
X101714362Y-60093302D01*
X101714360Y-60093313D01*
X101694528Y-60319998D01*
X101694528Y-60320001D01*
X101714360Y-60546686D01*
X101714362Y-60546697D01*
X101773254Y-60766488D01*
X101773257Y-60766497D01*
X101869427Y-60972732D01*
X101869428Y-60972734D01*
X101999950Y-61159141D01*
X102160854Y-61320045D01*
X102160857Y-61320047D01*
X102347262Y-61450568D01*
X102405271Y-61477618D01*
X102457710Y-61523791D01*
X102476862Y-61590984D01*
X102456646Y-61657865D01*
X102405271Y-61702382D01*
X102347263Y-61729431D01*
X102347261Y-61729432D01*
X102160854Y-61859954D01*
X101999950Y-62020858D01*
X101869428Y-62207265D01*
X101869427Y-62207267D01*
X101773257Y-62413502D01*
X101773254Y-62413511D01*
X101714362Y-62633302D01*
X101714360Y-62633313D01*
X101694528Y-62859998D01*
X101694528Y-62860001D01*
X101714360Y-63086686D01*
X101714362Y-63086697D01*
X101773254Y-63306488D01*
X101773257Y-63306497D01*
X101869427Y-63512732D01*
X101869428Y-63512734D01*
X101999950Y-63699141D01*
X102160854Y-63860045D01*
X102160857Y-63860047D01*
X102347262Y-63990568D01*
X102405271Y-64017618D01*
X102457710Y-64063791D01*
X102476862Y-64130984D01*
X102456646Y-64197865D01*
X102405271Y-64242382D01*
X102347263Y-64269431D01*
X102347261Y-64269432D01*
X102160854Y-64399954D01*
X101999950Y-64560858D01*
X101869428Y-64747265D01*
X101869427Y-64747267D01*
X101773257Y-64953502D01*
X101773254Y-64953511D01*
X101714362Y-65173302D01*
X101714360Y-65173313D01*
X101694528Y-65399998D01*
X101694528Y-65400001D01*
X101714360Y-65626686D01*
X101714362Y-65626697D01*
X101773254Y-65846488D01*
X101773257Y-65846497D01*
X101869427Y-66052732D01*
X101869428Y-66052734D01*
X101999950Y-66239141D01*
X102160854Y-66400045D01*
X102160857Y-66400047D01*
X102347262Y-66530568D01*
X102553500Y-66626739D01*
X102553505Y-66626740D01*
X102553507Y-66626741D01*
X102606411Y-66640916D01*
X102773304Y-66685635D01*
X102935226Y-66699801D01*
X102999994Y-66705468D01*
X102999996Y-66705468D01*
X102999998Y-66705468D01*
X103056669Y-66700509D01*
X103226688Y-66685635D01*
X103446492Y-66626739D01*
X103652730Y-66530568D01*
X103839135Y-66400047D01*
X104000043Y-66239139D01*
X104130564Y-66052734D01*
X104226735Y-65846496D01*
X104285631Y-65626692D01*
X104305464Y-65400000D01*
X104285631Y-65173308D01*
X104226735Y-64953504D01*
X104130564Y-64747266D01*
X104000043Y-64560861D01*
X104000041Y-64560858D01*
X103839137Y-64399954D01*
X103652730Y-64269432D01*
X103652724Y-64269429D01*
X103594721Y-64242382D01*
X103542281Y-64196210D01*
X103523129Y-64129017D01*
X103543344Y-64062135D01*
X103594721Y-64017618D01*
X103652730Y-63990568D01*
X103839135Y-63860047D01*
X104000043Y-63699139D01*
X104130564Y-63512734D01*
X104226735Y-63306496D01*
X104285631Y-63086692D01*
X104305464Y-62860000D01*
X104285631Y-62633308D01*
X104226735Y-62413504D01*
X104130564Y-62207266D01*
X104000043Y-62020861D01*
X104000041Y-62020858D01*
X103839137Y-61859954D01*
X103652730Y-61729432D01*
X103652724Y-61729429D01*
X103594721Y-61702382D01*
X103542281Y-61656210D01*
X103523129Y-61589017D01*
X103543344Y-61522135D01*
X103594721Y-61477618D01*
X103652730Y-61450568D01*
X103839135Y-61320047D01*
X104000043Y-61159139D01*
X104130564Y-60972734D01*
X104226735Y-60766496D01*
X104285631Y-60546692D01*
X104305464Y-60320000D01*
X104303076Y-60292710D01*
X104291646Y-60162058D01*
X104285631Y-60093308D01*
X104230242Y-59886592D01*
X104231905Y-59816744D01*
X104271068Y-59758881D01*
X104335296Y-59731377D01*
X104350017Y-59730500D01*
X105096385Y-59730500D01*
X105163424Y-59750185D01*
X105209179Y-59802989D01*
X105219123Y-59872147D01*
X105216161Y-59886590D01*
X105214362Y-59893303D01*
X105214360Y-59893313D01*
X105194528Y-60119998D01*
X105194528Y-60120001D01*
X105214360Y-60346686D01*
X105214362Y-60346697D01*
X105273254Y-60566488D01*
X105273257Y-60566497D01*
X105369427Y-60772732D01*
X105369428Y-60772734D01*
X105499950Y-60959141D01*
X105660854Y-61120045D01*
X105660857Y-61120047D01*
X105847262Y-61250568D01*
X106053500Y-61346739D01*
X106273304Y-61405635D01*
X106435226Y-61419801D01*
X106499994Y-61425468D01*
X106499996Y-61425468D01*
X106499998Y-61425468D01*
X106556669Y-61420509D01*
X106726688Y-61405635D01*
X106946492Y-61346739D01*
X107152730Y-61250568D01*
X107339135Y-61120047D01*
X107500043Y-60959139D01*
X107630564Y-60772734D01*
X107726735Y-60566496D01*
X107785631Y-60346692D01*
X107805464Y-60120000D01*
X107785631Y-59893308D01*
X107759843Y-59797066D01*
X107761506Y-59727217D01*
X107791935Y-59677294D01*
X108568506Y-58900724D01*
X108568511Y-58900720D01*
X108572413Y-58896819D01*
X108578648Y-58893414D01*
X108600728Y-58877500D01*
X108600734Y-58877497D01*
X108602249Y-58880527D01*
X108633736Y-58863334D01*
X108660094Y-58860500D01*
X110275496Y-58860500D01*
X110342535Y-58880185D01*
X110388290Y-58932989D01*
X110399496Y-58984500D01*
X110399496Y-59206286D01*
X110432749Y-59416239D01*
X110498440Y-59618414D01*
X110594947Y-59807820D01*
X110719886Y-59979786D01*
X110870209Y-60130109D01*
X111042175Y-60255048D01*
X111042177Y-60255049D01*
X111042180Y-60255051D01*
X111231584Y-60351557D01*
X111433753Y-60417246D01*
X111643709Y-60450500D01*
X111697770Y-60450500D01*
X111764809Y-60470185D01*
X111785446Y-60486814D01*
X111943182Y-60644549D01*
X111976666Y-60705871D01*
X111979500Y-60732229D01*
X111979500Y-66464097D01*
X111959815Y-66531136D01*
X111907011Y-66576891D01*
X111844694Y-66587625D01*
X111749999Y-66579341D01*
X111749995Y-66579341D01*
X111514592Y-66599936D01*
X111514582Y-66599938D01*
X111286340Y-66661094D01*
X111286331Y-66661098D01*
X111072167Y-66760964D01*
X111072165Y-66760965D01*
X110878593Y-66896505D01*
X110711502Y-67063596D01*
X110663870Y-67131623D01*
X110609293Y-67175248D01*
X110562295Y-67184500D01*
X106491076Y-67184500D01*
X106346088Y-67213340D01*
X106346078Y-67213343D01*
X106209505Y-67269913D01*
X106209503Y-67269914D01*
X106168641Y-67297218D01*
X106168639Y-67297219D01*
X106086585Y-67352043D01*
X106086580Y-67352047D01*
X105417050Y-68021576D01*
X105417044Y-68021584D01*
X105367812Y-68095264D01*
X105367813Y-68095265D01*
X105334921Y-68144492D01*
X105334914Y-68144504D01*
X105278342Y-68281082D01*
X105278340Y-68281088D01*
X105249500Y-68426075D01*
X105249500Y-68426078D01*
X105249500Y-72073922D01*
X105249500Y-72073924D01*
X105249499Y-72073924D01*
X105278340Y-72218911D01*
X105278343Y-72218921D01*
X105334914Y-72355496D01*
X105367812Y-72404731D01*
X105367813Y-72404734D01*
X105417046Y-72478418D01*
X105417052Y-72478425D01*
X106521580Y-73582952D01*
X106521582Y-73582954D01*
X106551054Y-73602645D01*
X106595266Y-73632186D01*
X106644501Y-73665084D01*
X106644502Y-73665084D01*
X106644503Y-73665085D01*
X106644505Y-73665086D01*
X106781078Y-73721656D01*
X106781083Y-73721658D01*
X106781087Y-73721658D01*
X106781088Y-73721659D01*
X106926075Y-73750500D01*
X106926078Y-73750500D01*
X118073916Y-73750500D01*
X118171458Y-73731096D01*
X118218909Y-73721658D01*
X118355491Y-73665084D01*
X118404725Y-73632186D01*
X118404730Y-73632183D01*
X118429067Y-73615921D01*
X118478412Y-73582952D01*
X125042269Y-67019093D01*
X125103592Y-66985609D01*
X125173284Y-66990593D01*
X125229217Y-67032465D01*
X125253634Y-67097929D01*
X125253948Y-67106132D01*
X125289355Y-73935627D01*
X125270019Y-74002768D01*
X125217453Y-74048796D01*
X125165627Y-74060270D01*
X84124766Y-74149597D01*
X84057684Y-74130058D01*
X84011814Y-74077354D01*
X84000496Y-74025597D01*
X84000496Y-72106286D01*
X85149500Y-72106286D01*
X85168265Y-72224767D01*
X85182754Y-72316243D01*
X85235450Y-72478425D01*
X85248444Y-72518414D01*
X85344951Y-72707820D01*
X85469890Y-72879786D01*
X85620213Y-73030109D01*
X85792179Y-73155048D01*
X85792181Y-73155049D01*
X85792184Y-73155051D01*
X85981588Y-73251557D01*
X86183757Y-73317246D01*
X86393713Y-73350500D01*
X86393714Y-73350500D01*
X86606286Y-73350500D01*
X86606287Y-73350500D01*
X86816243Y-73317246D01*
X87018412Y-73251557D01*
X87207816Y-73155051D01*
X87229789Y-73139086D01*
X87379786Y-73030109D01*
X87379788Y-73030106D01*
X87379792Y-73030104D01*
X87530104Y-72879792D01*
X87530106Y-72879788D01*
X87530109Y-72879786D01*
X87655048Y-72707820D01*
X87655047Y-72707820D01*
X87655051Y-72707816D01*
X87751557Y-72518412D01*
X87817246Y-72316243D01*
X87850500Y-72106287D01*
X87850500Y-71893713D01*
X87817246Y-71683757D01*
X87751557Y-71481588D01*
X87655051Y-71292184D01*
X87655049Y-71292181D01*
X87655048Y-71292179D01*
X87530109Y-71120213D01*
X87379786Y-70969890D01*
X87207820Y-70844951D01*
X87018414Y-70748444D01*
X87018413Y-70748443D01*
X87018412Y-70748443D01*
X86816243Y-70682754D01*
X86816241Y-70682753D01*
X86816240Y-70682753D01*
X86654957Y-70657208D01*
X86606287Y-70649500D01*
X86393713Y-70649500D01*
X86345042Y-70657208D01*
X86183760Y-70682753D01*
X85981585Y-70748444D01*
X85792179Y-70844951D01*
X85620213Y-70969890D01*
X85469890Y-71120213D01*
X85344951Y-71292179D01*
X85248444Y-71481585D01*
X85182753Y-71683760D01*
X85149500Y-71893713D01*
X85149500Y-72106286D01*
X84000496Y-72106286D01*
X84000496Y-24606286D01*
X85149500Y-24606286D01*
X85178093Y-24786819D01*
X85182754Y-24816243D01*
X85230172Y-24962181D01*
X85248444Y-25018414D01*
X85344951Y-25207820D01*
X85469890Y-25379786D01*
X85620213Y-25530109D01*
X85792179Y-25655048D01*
X85792181Y-25655049D01*
X85792184Y-25655051D01*
X85981588Y-25751557D01*
X86183757Y-25817246D01*
X86393713Y-25850500D01*
X86393714Y-25850500D01*
X86606286Y-25850500D01*
X86606287Y-25850500D01*
X86816243Y-25817246D01*
X87018412Y-25751557D01*
X87207816Y-25655051D01*
X87229789Y-25639086D01*
X87379786Y-25530109D01*
X87379788Y-25530106D01*
X87379792Y-25530104D01*
X87530104Y-25379792D01*
X87530106Y-25379788D01*
X87530109Y-25379786D01*
X87655048Y-25207820D01*
X87655047Y-25207820D01*
X87655051Y-25207816D01*
X87751557Y-25018412D01*
X87817246Y-24816243D01*
X87850500Y-24606287D01*
X87850500Y-24393713D01*
X87817246Y-24183757D01*
X87751557Y-23981588D01*
X87655051Y-23792184D01*
X87655049Y-23792181D01*
X87655048Y-23792179D01*
X87530109Y-23620213D01*
X87379786Y-23469890D01*
X87207820Y-23344951D01*
X87018414Y-23248444D01*
X87018413Y-23248443D01*
X87018412Y-23248443D01*
X86816243Y-23182754D01*
X86816241Y-23182753D01*
X86816240Y-23182753D01*
X86654957Y-23157208D01*
X86606287Y-23149500D01*
X86393713Y-23149500D01*
X86345042Y-23157208D01*
X86183760Y-23182753D01*
X85981585Y-23248444D01*
X85792179Y-23344951D01*
X85620213Y-23469890D01*
X85469890Y-23620213D01*
X85344951Y-23792179D01*
X85248444Y-23981585D01*
X85182753Y-24183760D01*
X85149500Y-24393713D01*
X85149500Y-24606286D01*
X84000496Y-24606286D01*
X84000496Y-22113968D01*
X84020181Y-22046929D01*
X84072985Y-22001174D01*
X84124458Y-21989969D01*
X124896611Y-21980030D01*
X124963655Y-21999698D01*
G37*
%TD.AperFunction*%
%TA.AperFunction,Conductor*%
G36*
X110629334Y-68705185D02*
G01*
X110663869Y-68738376D01*
X110711501Y-68806401D01*
X110833426Y-68928326D01*
X110866911Y-68989649D01*
X110861927Y-69059341D01*
X110820055Y-69115274D01*
X110789079Y-69132189D01*
X110657665Y-69181203D01*
X110657660Y-69181206D01*
X110542451Y-69267452D01*
X110542448Y-69267455D01*
X110456202Y-69382664D01*
X110456198Y-69382671D01*
X110405904Y-69517517D01*
X110399497Y-69577116D01*
X110399496Y-69577135D01*
X110399496Y-71372870D01*
X110399497Y-71372876D01*
X110405904Y-71432483D01*
X110456198Y-71567328D01*
X110456202Y-71567335D01*
X110542448Y-71682544D01*
X110542451Y-71682547D01*
X110657660Y-71768793D01*
X110657667Y-71768797D01*
X110792513Y-71819091D01*
X110792512Y-71819091D01*
X110799440Y-71819835D01*
X110852123Y-71825500D01*
X112647868Y-71825499D01*
X112707479Y-71819091D01*
X112842327Y-71768796D01*
X112957542Y-71682546D01*
X113043792Y-71567331D01*
X113092806Y-71435916D01*
X113134677Y-71379984D01*
X113200141Y-71355566D01*
X113268414Y-71370417D01*
X113296669Y-71391569D01*
X113418595Y-71513495D01*
X113515380Y-71581265D01*
X113612161Y-71649032D01*
X113612163Y-71649033D01*
X113612166Y-71649035D01*
X113826333Y-71748903D01*
X114054588Y-71810063D01*
X114202657Y-71823017D01*
X114249739Y-71827137D01*
X114314807Y-71852590D01*
X114326612Y-71862984D01*
X114501447Y-72037819D01*
X114534932Y-72099142D01*
X114529948Y-72168834D01*
X114488076Y-72224767D01*
X114422612Y-72249184D01*
X114413766Y-72249500D01*
X107362226Y-72249500D01*
X107295187Y-72229815D01*
X107274545Y-72213181D01*
X106786819Y-71725455D01*
X106753334Y-71664132D01*
X106750500Y-71637774D01*
X106750500Y-68862226D01*
X106770185Y-68795187D01*
X106786819Y-68774545D01*
X106839545Y-68721819D01*
X106900868Y-68688334D01*
X106927226Y-68685500D01*
X110562295Y-68685500D01*
X110629334Y-68705185D01*
G37*
%TD.AperFunction*%
%TA.AperFunction,Conductor*%
G36*
X122168830Y-66010047D02*
G01*
X122224763Y-66051919D01*
X122249180Y-66117383D01*
X122249496Y-66126229D01*
X122249496Y-66167773D01*
X122229811Y-66234812D01*
X122213177Y-66255454D01*
X118330448Y-70138182D01*
X118269125Y-70171667D01*
X118199433Y-70166683D01*
X118143500Y-70124811D01*
X118122992Y-70082593D01*
X118114213Y-70049828D01*
X118115876Y-69979978D01*
X118146305Y-69930057D01*
X122037817Y-66038546D01*
X122099138Y-66005063D01*
X122168830Y-66010047D01*
G37*
%TD.AperFunction*%
%TA.AperFunction,Conductor*%
G36*
X115644851Y-68601546D02*
G01*
X115661571Y-68620842D01*
X115791497Y-68806396D01*
X115791502Y-68806402D01*
X115958593Y-68973493D01*
X115958599Y-68973498D01*
X116144154Y-69103425D01*
X116187779Y-69158002D01*
X116194973Y-69227500D01*
X116163450Y-69289855D01*
X116144154Y-69306575D01*
X115958593Y-69436505D01*
X115791501Y-69603597D01*
X115661571Y-69789158D01*
X115606994Y-69832783D01*
X115537496Y-69839977D01*
X115475141Y-69808454D01*
X115458421Y-69789158D01*
X115328490Y-69603597D01*
X115161398Y-69436506D01*
X115161392Y-69436501D01*
X114975838Y-69306575D01*
X114932213Y-69251998D01*
X114925019Y-69182500D01*
X114956542Y-69120145D01*
X114975838Y-69103425D01*
X115038796Y-69059341D01*
X115161397Y-68973495D01*
X115328491Y-68806401D01*
X115458421Y-68620842D01*
X115512998Y-68577217D01*
X115582496Y-68570023D01*
X115644851Y-68601546D01*
G37*
%TD.AperFunction*%
%TA.AperFunction,Conductor*%
G36*
X120704805Y-45270185D02*
G01*
X120725447Y-45286819D01*
X121213177Y-45774548D01*
X121246662Y-45835871D01*
X121249496Y-45862229D01*
X121249496Y-64652769D01*
X121229811Y-64719808D01*
X121213177Y-64740450D01*
X118335730Y-67617896D01*
X118274407Y-67651381D01*
X118204715Y-67646397D01*
X118148782Y-67604525D01*
X118128274Y-67562307D01*
X118103902Y-67471346D01*
X118103900Y-67471342D01*
X118103899Y-67471337D01*
X118004031Y-67257171D01*
X117998421Y-67249158D01*
X117868490Y-67063597D01*
X117701400Y-66896507D01*
X117633371Y-66848872D01*
X117589747Y-66794294D01*
X117580496Y-66747298D01*
X117580496Y-60229097D01*
X117600181Y-60162058D01*
X117626695Y-60133989D01*
X117626081Y-60133270D01*
X117629782Y-60130108D01*
X117629788Y-60130104D01*
X117768600Y-59991291D01*
X117829919Y-59957809D01*
X117899611Y-59962793D01*
X117955545Y-60004664D01*
X117961817Y-60013878D01*
X117965181Y-60019333D01*
X117965182Y-60019334D01*
X118057284Y-60168656D01*
X118181340Y-60292712D01*
X118330662Y-60384814D01*
X118497199Y-60439999D01*
X118599987Y-60450500D01*
X119900004Y-60450499D01*
X120002793Y-60439999D01*
X120169330Y-60384814D01*
X120318652Y-60292712D01*
X120442708Y-60168656D01*
X120534810Y-60019334D01*
X120589995Y-59852797D01*
X120600496Y-59750009D01*
X120600495Y-58199992D01*
X120589995Y-58097203D01*
X120534810Y-57930666D01*
X120442708Y-57781344D01*
X120318652Y-57657288D01*
X120169330Y-57565186D01*
X120002793Y-57510001D01*
X120002791Y-57510000D01*
X119900012Y-57499500D01*
X119900005Y-57499500D01*
X118887226Y-57499500D01*
X118820187Y-57479815D01*
X118799545Y-57463181D01*
X115174045Y-53837681D01*
X115140560Y-53776358D01*
X115145544Y-53706666D01*
X115174045Y-53662319D01*
X119832943Y-49003421D01*
X119832948Y-49003416D01*
X119898282Y-48905635D01*
X119915080Y-48880495D01*
X119971654Y-48743913D01*
X119996293Y-48620047D01*
X120000496Y-48598920D01*
X120000496Y-48080300D01*
X120020181Y-48013261D01*
X120072985Y-47967506D01*
X120085478Y-47962599D01*
X120169330Y-47934814D01*
X120318652Y-47842712D01*
X120442708Y-47718656D01*
X120534810Y-47569334D01*
X120589995Y-47402797D01*
X120600496Y-47300009D01*
X120600495Y-45749992D01*
X120599288Y-45738181D01*
X120589995Y-45647203D01*
X120589994Y-45647200D01*
X120585923Y-45634914D01*
X120534810Y-45480666D01*
X120509477Y-45439595D01*
X120491038Y-45372204D01*
X120511961Y-45305541D01*
X120565603Y-45260771D01*
X120615017Y-45250500D01*
X120637766Y-45250500D01*
X120704805Y-45270185D01*
G37*
%TD.AperFunction*%
%TA.AperFunction,Conductor*%
G36*
X115586416Y-59799166D02*
G01*
X115600309Y-59815199D01*
X115657062Y-59893313D01*
X115719892Y-59979792D01*
X115870207Y-60130107D01*
X115923268Y-60168657D01*
X116028381Y-60245025D01*
X116071047Y-60300354D01*
X116079496Y-60345343D01*
X116079496Y-66747298D01*
X116059811Y-66814337D01*
X116026621Y-66848872D01*
X115958591Y-66896507D01*
X115791501Y-67063597D01*
X115661571Y-67249158D01*
X115606994Y-67292783D01*
X115537496Y-67299977D01*
X115475141Y-67268454D01*
X115458421Y-67249158D01*
X115328490Y-67063597D01*
X115161400Y-66896507D01*
X115093371Y-66848872D01*
X115049747Y-66794294D01*
X115040496Y-66747298D01*
X115040496Y-60258158D01*
X115060181Y-60191119D01*
X115091609Y-60157841D01*
X115129788Y-60130104D01*
X115280100Y-59979792D01*
X115399679Y-59815204D01*
X115455007Y-59772540D01*
X115524620Y-59766561D01*
X115586416Y-59799166D01*
G37*
%TD.AperFunction*%
%TA.AperFunction,Conductor*%
G36*
X89267427Y-50188799D02*
G01*
X92740948Y-53662319D01*
X96057044Y-56978415D01*
X96057045Y-56978416D01*
X96161580Y-57082951D01*
X96161581Y-57082952D01*
X96284494Y-57165080D01*
X96284507Y-57165087D01*
X96421078Y-57221656D01*
X96421083Y-57221658D01*
X96421087Y-57221658D01*
X96421088Y-57221659D01*
X96566075Y-57250500D01*
X96566078Y-57250500D01*
X101633898Y-57250500D01*
X101700937Y-57270185D01*
X101746692Y-57322989D01*
X101756636Y-57392147D01*
X101753673Y-57406593D01*
X101714362Y-57553302D01*
X101714360Y-57553313D01*
X101694528Y-57779998D01*
X101694528Y-57780001D01*
X101714360Y-58006686D01*
X101714362Y-58006697D01*
X101718350Y-58021579D01*
X101758868Y-58172797D01*
X101759032Y-58173407D01*
X101757369Y-58243256D01*
X101718206Y-58301119D01*
X101653978Y-58328623D01*
X101639257Y-58329500D01*
X97042225Y-58329500D01*
X96975186Y-58309815D01*
X96954544Y-58293181D01*
X89086712Y-50425348D01*
X89053227Y-50364025D01*
X89050865Y-50326863D01*
X89056218Y-50265670D01*
X89081670Y-50200604D01*
X89138261Y-50159625D01*
X89208023Y-50155747D01*
X89267427Y-50188799D01*
G37*
%TD.AperFunction*%
%TA.AperFunction,Conductor*%
G36*
X106308038Y-57270185D02*
G01*
X106353793Y-57322989D01*
X106363737Y-57392147D01*
X106334712Y-57455703D01*
X106328680Y-57462181D01*
X105769281Y-58021578D01*
X105769281Y-58021579D01*
X105769278Y-58021582D01*
X105769277Y-58021584D01*
X105728490Y-58082626D01*
X105687145Y-58144505D01*
X105675426Y-58172797D01*
X105648548Y-58213021D01*
X105568391Y-58293180D01*
X105507069Y-58326666D01*
X105480709Y-58329500D01*
X104360735Y-58329500D01*
X104293696Y-58309815D01*
X104247941Y-58257011D01*
X104237997Y-58187853D01*
X104240960Y-58173407D01*
X104285631Y-58006692D01*
X104305464Y-57780000D01*
X104285631Y-57553308D01*
X104246319Y-57406592D01*
X104247982Y-57336743D01*
X104287145Y-57278881D01*
X104351373Y-57251377D01*
X104366094Y-57250500D01*
X106240999Y-57250500D01*
X106308038Y-57270185D01*
G37*
%TD.AperFunction*%
%TA.AperFunction,Conductor*%
G36*
X113527791Y-54709939D02*
G01*
X113552528Y-54720185D01*
X113556084Y-54721658D01*
X113556088Y-54721658D01*
X113556089Y-54721659D01*
X113701076Y-54750500D01*
X113701079Y-54750500D01*
X113848914Y-54750500D01*
X113865082Y-54747283D01*
X113880005Y-54744315D01*
X113949596Y-54750541D01*
X113991879Y-54778251D01*
X116531552Y-57317924D01*
X116565037Y-57379247D01*
X116560053Y-57448939D01*
X116518181Y-57504872D01*
X116463269Y-57528078D01*
X116440357Y-57531707D01*
X116371064Y-57522753D01*
X116333278Y-57496915D01*
X114753417Y-55917052D01*
X114753410Y-55917046D01*
X114679725Y-55867812D01*
X114679725Y-55867813D01*
X114630487Y-55834913D01*
X114493913Y-55778343D01*
X114493903Y-55778340D01*
X114348916Y-55749500D01*
X114348914Y-55749500D01*
X104371453Y-55749500D01*
X104304414Y-55729815D01*
X104258659Y-55677011D01*
X104248715Y-55607853D01*
X104251678Y-55593407D01*
X104252008Y-55592172D01*
X104285631Y-55466692D01*
X104305464Y-55240000D01*
X104285631Y-55013308D01*
X104243640Y-54856593D01*
X104245303Y-54786743D01*
X104284466Y-54728881D01*
X104348694Y-54701377D01*
X104363415Y-54700500D01*
X113480339Y-54700500D01*
X113527791Y-54709939D01*
G37*
%TD.AperFunction*%
%TA.AperFunction,Conductor*%
G36*
X89265014Y-47676382D02*
G01*
X96171580Y-54582948D01*
X96171584Y-54582951D01*
X96294498Y-54665080D01*
X96294511Y-54665087D01*
X96427531Y-54720185D01*
X96431087Y-54721658D01*
X96544993Y-54744315D01*
X96576077Y-54750498D01*
X96576081Y-54750499D01*
X96576082Y-54750499D01*
X96723918Y-54750499D01*
X96723919Y-54750498D01*
X96868912Y-54721658D01*
X96897205Y-54709938D01*
X96944656Y-54700500D01*
X101636577Y-54700500D01*
X101703616Y-54720185D01*
X101749371Y-54772989D01*
X101759315Y-54842147D01*
X101756352Y-54856593D01*
X101714362Y-55013302D01*
X101714360Y-55013313D01*
X101694528Y-55239998D01*
X101694528Y-55240001D01*
X101714360Y-55466686D01*
X101714362Y-55466697D01*
X101748314Y-55593407D01*
X101746651Y-55663257D01*
X101707488Y-55721119D01*
X101643260Y-55748623D01*
X101628539Y-55749500D01*
X97002225Y-55749500D01*
X96935186Y-55729815D01*
X96914544Y-55713181D01*
X89086712Y-47885348D01*
X89053227Y-47824025D01*
X89050865Y-47786863D01*
X89053805Y-47753254D01*
X89079257Y-47688187D01*
X89135848Y-47647208D01*
X89205610Y-47643330D01*
X89265014Y-47676382D01*
G37*
%TD.AperFunction*%
%TA.AperFunction,Conductor*%
G36*
X89273116Y-45043777D02*
G01*
X96213449Y-51984111D01*
X96213450Y-51984112D01*
X96328188Y-52060777D01*
X96455663Y-52113578D01*
X96455668Y-52113580D01*
X96455672Y-52113580D01*
X96455673Y-52113581D01*
X96590999Y-52140500D01*
X96591002Y-52140500D01*
X96591003Y-52140500D01*
X101641936Y-52140500D01*
X101708975Y-52160185D01*
X101754730Y-52212989D01*
X101764674Y-52282147D01*
X101761711Y-52296593D01*
X101714362Y-52473302D01*
X101714360Y-52473313D01*
X101694528Y-52699998D01*
X101694528Y-52700001D01*
X101714360Y-52926686D01*
X101714362Y-52926697D01*
X101772429Y-53143407D01*
X101770766Y-53213257D01*
X101731603Y-53271119D01*
X101667375Y-53298623D01*
X101652654Y-53299500D01*
X97062229Y-53299500D01*
X96995190Y-53279815D01*
X96974548Y-53263181D01*
X89428421Y-45717052D01*
X89428417Y-45717049D01*
X89428416Y-45717048D01*
X89305494Y-45634916D01*
X89305492Y-45634915D01*
X89305490Y-45634914D01*
X89168912Y-45578342D01*
X89168907Y-45578340D01*
X89112612Y-45567142D01*
X89050701Y-45534756D01*
X89016128Y-45474039D01*
X89017029Y-45413433D01*
X89045631Y-45306692D01*
X89061907Y-45120649D01*
X89087359Y-45055582D01*
X89143950Y-45014603D01*
X89213712Y-45010725D01*
X89273116Y-45043777D01*
G37*
%TD.AperFunction*%
%TA.AperFunction,Conductor*%
G36*
X117899611Y-47512793D02*
G01*
X117955545Y-47554664D01*
X117961817Y-47563878D01*
X117965181Y-47569333D01*
X117965182Y-47569334D01*
X118057284Y-47718656D01*
X118181340Y-47842712D01*
X118330662Y-47934814D01*
X118414501Y-47962595D01*
X118471944Y-48002366D01*
X118498768Y-48066882D01*
X118499496Y-48080300D01*
X118499496Y-48162770D01*
X118479811Y-48229809D01*
X118463177Y-48250451D01*
X113494546Y-53219082D01*
X113494540Y-53219086D01*
X113450448Y-53263180D01*
X113389125Y-53296666D01*
X113362766Y-53299500D01*
X104347338Y-53299500D01*
X104280299Y-53279815D01*
X104234544Y-53227011D01*
X104224600Y-53157853D01*
X104227563Y-53143407D01*
X104246083Y-53074286D01*
X104285631Y-52926692D01*
X104305464Y-52700000D01*
X104285631Y-52473308D01*
X104238281Y-52296593D01*
X104239944Y-52226743D01*
X104279107Y-52168881D01*
X104343335Y-52141377D01*
X104358056Y-52140500D01*
X111070093Y-52140500D01*
X111137132Y-52160185D01*
X111138981Y-52161396D01*
X111144502Y-52165085D01*
X111260154Y-52212989D01*
X111281083Y-52221658D01*
X111281087Y-52221658D01*
X111281088Y-52221659D01*
X111426075Y-52250500D01*
X111426078Y-52250500D01*
X111973916Y-52250500D01*
X112071458Y-52231096D01*
X112118909Y-52221658D01*
X112255491Y-52165084D01*
X112378412Y-52082951D01*
X112482947Y-51978416D01*
X112565080Y-51855495D01*
X112615188Y-51734522D01*
X112642065Y-51694296D01*
X116333279Y-48003082D01*
X116394600Y-47969599D01*
X116440356Y-47968292D01*
X116548556Y-47985429D01*
X116643709Y-48000500D01*
X116643710Y-48000500D01*
X116856282Y-48000500D01*
X116856283Y-48000500D01*
X117066239Y-47967246D01*
X117268408Y-47901557D01*
X117457812Y-47805051D01*
X117629788Y-47680104D01*
X117768600Y-47541291D01*
X117829919Y-47507809D01*
X117899611Y-47512793D01*
G37*
%TD.AperFunction*%
%TA.AperFunction,Conductor*%
G36*
X89267427Y-42568799D02*
G01*
X91261574Y-44562947D01*
X91261577Y-44562949D01*
X91261580Y-44562952D01*
X91384502Y-44645084D01*
X91521084Y-44701658D01*
X91521088Y-44701658D01*
X91521089Y-44701659D01*
X91666076Y-44730500D01*
X91666079Y-44730500D01*
X91813915Y-44730500D01*
X91911457Y-44711096D01*
X91958908Y-44701658D01*
X92095490Y-44645084D01*
X92218412Y-44562952D01*
X92218417Y-44562947D01*
X92234546Y-44546819D01*
X92295869Y-44513334D01*
X92322227Y-44510500D01*
X101644616Y-44510500D01*
X101711655Y-44530185D01*
X101757410Y-44582989D01*
X101767354Y-44652147D01*
X101764391Y-44666593D01*
X101714362Y-44853302D01*
X101714360Y-44853313D01*
X101694528Y-45079998D01*
X101694528Y-45080001D01*
X101714360Y-45306686D01*
X101714362Y-45306697D01*
X101773254Y-45526488D01*
X101773257Y-45526497D01*
X101869427Y-45732732D01*
X101869428Y-45732734D01*
X101999950Y-45919141D01*
X102160854Y-46080045D01*
X102160857Y-46080047D01*
X102347262Y-46210568D01*
X102405271Y-46237618D01*
X102457710Y-46283791D01*
X102476862Y-46350984D01*
X102456646Y-46417865D01*
X102405271Y-46462382D01*
X102347263Y-46489431D01*
X102347261Y-46489432D01*
X102160854Y-46619954D01*
X101999950Y-46780858D01*
X101869428Y-46967265D01*
X101869427Y-46967267D01*
X101773257Y-47173502D01*
X101773254Y-47173511D01*
X101714362Y-47393302D01*
X101714360Y-47393313D01*
X101694528Y-47619998D01*
X101694528Y-47620001D01*
X101714360Y-47846686D01*
X101714362Y-47846697D01*
X101773254Y-48066488D01*
X101773257Y-48066497D01*
X101869427Y-48272732D01*
X101869428Y-48272734D01*
X101999950Y-48459141D01*
X102160854Y-48620045D01*
X102160857Y-48620047D01*
X102347262Y-48750568D01*
X102405271Y-48777618D01*
X102457710Y-48823791D01*
X102476862Y-48890984D01*
X102456646Y-48957865D01*
X102405271Y-49002381D01*
X102388268Y-49010310D01*
X102347263Y-49029431D01*
X102347261Y-49029432D01*
X102160854Y-49159954D01*
X101999950Y-49320858D01*
X101869428Y-49507265D01*
X101869427Y-49507267D01*
X101773257Y-49713502D01*
X101773254Y-49713511D01*
X101714362Y-49933302D01*
X101714360Y-49933313D01*
X101694528Y-50159998D01*
X101694528Y-50160001D01*
X101714360Y-50386686D01*
X101714362Y-50386697D01*
X101767070Y-50583407D01*
X101765407Y-50653257D01*
X101726244Y-50711119D01*
X101662016Y-50738623D01*
X101647295Y-50739500D01*
X97001515Y-50739500D01*
X96934476Y-50719815D01*
X96913834Y-50703181D01*
X89081023Y-42870370D01*
X89047538Y-42809047D01*
X89045176Y-42771882D01*
X89045629Y-42766697D01*
X89045631Y-42766692D01*
X89056219Y-42645670D01*
X89081670Y-42580604D01*
X89138261Y-42539625D01*
X89208023Y-42535747D01*
X89267427Y-42568799D01*
G37*
%TD.AperFunction*%
%TA.AperFunction,Conductor*%
G36*
X104584805Y-44530185D02*
G01*
X104605447Y-44546819D01*
X105208815Y-45150187D01*
X105240908Y-45205773D01*
X105273256Y-45326495D01*
X105369427Y-45532732D01*
X105369428Y-45532734D01*
X105499950Y-45719141D01*
X105660854Y-45880045D01*
X105660857Y-45880047D01*
X105847262Y-46010568D01*
X106053500Y-46106739D01*
X106273304Y-46165635D01*
X106435226Y-46179801D01*
X106499994Y-46185468D01*
X106499996Y-46185468D01*
X106499997Y-46185468D01*
X106520058Y-46183712D01*
X106666857Y-46170869D01*
X106735355Y-46184635D01*
X106765344Y-46206716D01*
X107562045Y-47003416D01*
X107666580Y-47107951D01*
X107666581Y-47107952D01*
X107789494Y-47190080D01*
X107789507Y-47190087D01*
X107926078Y-47246656D01*
X107926083Y-47246658D01*
X107926087Y-47246658D01*
X107926088Y-47246659D01*
X108071075Y-47275500D01*
X108071078Y-47275500D01*
X110477015Y-47275500D01*
X110544054Y-47295185D01*
X110587499Y-47343203D01*
X110594946Y-47357819D01*
X110719886Y-47529786D01*
X110870209Y-47680109D01*
X111042175Y-47805048D01*
X111042177Y-47805049D01*
X111042180Y-47805051D01*
X111231584Y-47901557D01*
X111433753Y-47967246D01*
X111643709Y-48000500D01*
X111643710Y-48000500D01*
X111856282Y-48000500D01*
X111856283Y-48000500D01*
X112066239Y-47967246D01*
X112268408Y-47901557D01*
X112457812Y-47805051D01*
X112529102Y-47753256D01*
X112629782Y-47680109D01*
X112629784Y-47680106D01*
X112629788Y-47680104D01*
X112780100Y-47529792D01*
X112899679Y-47365204D01*
X112955007Y-47322540D01*
X113024620Y-47316561D01*
X113086416Y-47349166D01*
X113100309Y-47365199D01*
X113203921Y-47507809D01*
X113219892Y-47529792D01*
X113370209Y-47680109D01*
X113542175Y-47805048D01*
X113542177Y-47805049D01*
X113542180Y-47805051D01*
X113731584Y-47901557D01*
X113933753Y-47967246D01*
X113933756Y-47967246D01*
X113933757Y-47967247D01*
X113963269Y-47971921D01*
X114026404Y-48001850D01*
X114063336Y-48061161D01*
X114062338Y-48131024D01*
X114031553Y-48182075D01*
X111510447Y-50703181D01*
X111449124Y-50736666D01*
X111422766Y-50739500D01*
X104352697Y-50739500D01*
X104285658Y-50719815D01*
X104239903Y-50667011D01*
X104229959Y-50597853D01*
X104232922Y-50583407D01*
X104275273Y-50425348D01*
X104285631Y-50386692D01*
X104305464Y-50160000D01*
X104285631Y-49933308D01*
X104226735Y-49713504D01*
X104130564Y-49507266D01*
X104000043Y-49320861D01*
X104000041Y-49320858D01*
X103839137Y-49159954D01*
X103652730Y-49029432D01*
X103652724Y-49029429D01*
X103625034Y-49016517D01*
X103594720Y-49002381D01*
X103542281Y-48956210D01*
X103523129Y-48889017D01*
X103543344Y-48822135D01*
X103594721Y-48777618D01*
X103652730Y-48750568D01*
X103839135Y-48620047D01*
X104000043Y-48459139D01*
X104130564Y-48272734D01*
X104226735Y-48066496D01*
X104285631Y-47846692D01*
X104305464Y-47620000D01*
X104301031Y-47569336D01*
X104297571Y-47529786D01*
X104285631Y-47393308D01*
X104226735Y-47173504D01*
X104130564Y-46967266D01*
X104000043Y-46780861D01*
X104000041Y-46780858D01*
X103839137Y-46619954D01*
X103652730Y-46489432D01*
X103652724Y-46489429D01*
X103594721Y-46462382D01*
X103542281Y-46416210D01*
X103523129Y-46349017D01*
X103543344Y-46282135D01*
X103594721Y-46237618D01*
X103652730Y-46210568D01*
X103839135Y-46080047D01*
X104000043Y-45919139D01*
X104130564Y-45732734D01*
X104226735Y-45526496D01*
X104285631Y-45306692D01*
X104305464Y-45080000D01*
X104285631Y-44853308D01*
X104235601Y-44666592D01*
X104237264Y-44596744D01*
X104276427Y-44538881D01*
X104340655Y-44511377D01*
X104355376Y-44510500D01*
X104517766Y-44510500D01*
X104584805Y-44530185D01*
G37*
%TD.AperFunction*%
%TA.AperFunction,Conductor*%
G36*
X119424805Y-41990185D02*
G01*
X119445447Y-42006819D01*
X119976447Y-42537819D01*
X120009932Y-42599142D01*
X120004948Y-42668834D01*
X119963076Y-42724767D01*
X119897612Y-42749184D01*
X119888766Y-42749500D01*
X115426076Y-42749500D01*
X115281088Y-42778340D01*
X115281082Y-42778342D01*
X115144504Y-42834914D01*
X115144492Y-42834921D01*
X115095265Y-42867813D01*
X115021584Y-42917044D01*
X115021576Y-42917050D01*
X113667043Y-44271584D01*
X113667039Y-44271589D01*
X113646146Y-44302860D01*
X113646146Y-44302861D01*
X113584909Y-44394508D01*
X113528339Y-44531082D01*
X113528336Y-44531092D01*
X113499496Y-44676079D01*
X113499496Y-45212779D01*
X113479811Y-45279818D01*
X113448381Y-45313097D01*
X113370207Y-45369893D01*
X113370201Y-45369898D01*
X113219890Y-45520209D01*
X113219886Y-45520214D01*
X113100314Y-45684793D01*
X113044985Y-45727459D01*
X112975371Y-45733438D01*
X112913576Y-45700833D01*
X112899678Y-45684793D01*
X112780105Y-45520214D01*
X112780101Y-45520209D01*
X112629782Y-45369890D01*
X112457816Y-45244951D01*
X112268410Y-45148444D01*
X112268409Y-45148443D01*
X112268408Y-45148443D01*
X112066239Y-45082754D01*
X112066237Y-45082753D01*
X112066236Y-45082753D01*
X111894683Y-45055582D01*
X111856283Y-45049500D01*
X111643709Y-45049500D01*
X111605309Y-45055582D01*
X111433756Y-45082753D01*
X111231581Y-45148444D01*
X111042175Y-45244951D01*
X110870209Y-45369890D01*
X110719886Y-45520213D01*
X110594946Y-45692180D01*
X110587499Y-45706797D01*
X110539523Y-45757592D01*
X110477015Y-45774500D01*
X108507225Y-45774500D01*
X108440186Y-45754815D01*
X108419544Y-45738181D01*
X107826712Y-45145348D01*
X107793227Y-45084025D01*
X107790865Y-45046863D01*
X107805464Y-44880000D01*
X107785631Y-44653308D01*
X107726735Y-44433504D01*
X107630564Y-44227266D01*
X107500043Y-44040861D01*
X107500041Y-44040858D01*
X107339137Y-43879954D01*
X107152730Y-43749432D01*
X107152728Y-43749431D01*
X106946493Y-43653261D01*
X106946484Y-43653258D01*
X106726693Y-43594366D01*
X106726689Y-43594365D01*
X106726688Y-43594365D01*
X106726687Y-43594364D01*
X106726682Y-43594364D01*
X106499998Y-43574532D01*
X106499994Y-43574532D01*
X106273309Y-43594364D01*
X106273298Y-43594366D01*
X106053507Y-43653258D01*
X106053502Y-43653260D01*
X106053500Y-43653261D01*
X105982918Y-43686173D01*
X105913842Y-43696664D01*
X105850059Y-43668144D01*
X105842835Y-43661471D01*
X105578417Y-43397052D01*
X105578413Y-43397049D01*
X105578412Y-43397048D01*
X105455490Y-43314916D01*
X105455483Y-43314913D01*
X105427195Y-43303195D01*
X105386969Y-43276316D01*
X105376541Y-43265888D01*
X105376537Y-43265885D01*
X105261813Y-43189228D01*
X105261800Y-43189221D01*
X105134328Y-43136421D01*
X105134318Y-43136418D01*
X104998991Y-43109500D01*
X104998989Y-43109500D01*
X104355376Y-43109500D01*
X104288337Y-43089815D01*
X104242582Y-43037011D01*
X104232638Y-42967853D01*
X104235601Y-42953407D01*
X104245344Y-42917046D01*
X104285631Y-42766692D01*
X104305464Y-42540000D01*
X104285631Y-42313308D01*
X104235601Y-42126592D01*
X104237264Y-42056744D01*
X104276427Y-41998881D01*
X104340655Y-41971377D01*
X104355376Y-41970500D01*
X119357766Y-41970500D01*
X119424805Y-41990185D01*
G37*
%TD.AperFunction*%
%TA.AperFunction,Conductor*%
G36*
X116455805Y-44270185D02*
G01*
X116501560Y-44322989D01*
X116511504Y-44392147D01*
X116482479Y-44455703D01*
X116476447Y-44462181D01*
X116167048Y-44771578D01*
X116167045Y-44771581D01*
X116132076Y-44823916D01*
X116132077Y-44823917D01*
X116084909Y-44894508D01*
X116028339Y-45031082D01*
X116028336Y-45031092D01*
X115999496Y-45176079D01*
X115999496Y-45212779D01*
X115979811Y-45279818D01*
X115948381Y-45313097D01*
X115870207Y-45369893D01*
X115870201Y-45369898D01*
X115719890Y-45520209D01*
X115719886Y-45520214D01*
X115600314Y-45684793D01*
X115544985Y-45727459D01*
X115475371Y-45733438D01*
X115413576Y-45700833D01*
X115399678Y-45684793D01*
X115280105Y-45520214D01*
X115280101Y-45520209D01*
X115129790Y-45369898D01*
X115129784Y-45369893D01*
X115051611Y-45313097D01*
X115008945Y-45257767D01*
X115000496Y-45212779D01*
X115000496Y-45112230D01*
X115020181Y-45045191D01*
X115036815Y-45024549D01*
X115774545Y-44286819D01*
X115835868Y-44253334D01*
X115862226Y-44250500D01*
X116388766Y-44250500D01*
X116455805Y-44270185D01*
G37*
%TD.AperFunction*%
%TA.AperFunction,Conductor*%
G36*
X117154805Y-36220185D02*
G01*
X117175447Y-36236819D01*
X123713177Y-42774548D01*
X123746662Y-42835871D01*
X123749496Y-42862229D01*
X123749496Y-43888770D01*
X123729811Y-43955809D01*
X123677007Y-44001564D01*
X123607849Y-44011508D01*
X123544293Y-43982483D01*
X123537815Y-43976451D01*
X122474093Y-42912728D01*
X122474070Y-42912707D01*
X120248417Y-40687052D01*
X120248413Y-40687049D01*
X120248412Y-40687048D01*
X120125490Y-40604916D01*
X120125488Y-40604915D01*
X120125486Y-40604914D01*
X119988908Y-40548342D01*
X119988902Y-40548340D01*
X119843915Y-40519500D01*
X119843913Y-40519500D01*
X119696079Y-40519500D01*
X119696077Y-40519500D01*
X119551089Y-40548340D01*
X119551079Y-40548343D01*
X119522791Y-40560061D01*
X119475339Y-40569500D01*
X104355376Y-40569500D01*
X104288337Y-40549815D01*
X104242582Y-40497011D01*
X104232638Y-40427853D01*
X104235601Y-40413407D01*
X104275273Y-40265348D01*
X104285631Y-40226692D01*
X104305464Y-40000000D01*
X104285631Y-39773308D01*
X104226735Y-39553504D01*
X104221325Y-39541904D01*
X104210834Y-39472828D01*
X104239353Y-39409044D01*
X104297830Y-39370804D01*
X104333708Y-39365500D01*
X112076529Y-39365500D01*
X112168217Y-39347261D01*
X112207032Y-39339540D01*
X112324286Y-39290972D01*
X112347536Y-39283919D01*
X112358908Y-39281658D01*
X112495490Y-39225084D01*
X112618412Y-39142952D01*
X114812369Y-36948992D01*
X114873690Y-36915509D01*
X114928247Y-36919300D01*
X114929014Y-36916108D01*
X114933741Y-36917242D01*
X114933753Y-36917246D01*
X115143709Y-36950500D01*
X115143710Y-36950500D01*
X115356282Y-36950500D01*
X115356283Y-36950500D01*
X115566239Y-36917246D01*
X115768408Y-36851557D01*
X115957812Y-36755051D01*
X116038681Y-36696297D01*
X116129782Y-36630109D01*
X116129784Y-36630106D01*
X116129788Y-36630104D01*
X116280100Y-36479792D01*
X116280102Y-36479788D01*
X116280105Y-36479786D01*
X116372365Y-36352799D01*
X116405047Y-36307816D01*
X116407816Y-36302382D01*
X116425231Y-36268205D01*
X116473205Y-36217409D01*
X116535715Y-36200500D01*
X117087766Y-36200500D01*
X117154805Y-36220185D01*
G37*
%TD.AperFunction*%
%TA.AperFunction,Conductor*%
G36*
X91023843Y-41858858D02*
G01*
X91033307Y-41864588D01*
X91072499Y-41890775D01*
X91072501Y-41890776D01*
X91072505Y-41890778D01*
X91199977Y-41943578D01*
X91199982Y-41943580D01*
X91199986Y-41943580D01*
X91199987Y-41943581D01*
X91335314Y-41970500D01*
X91335317Y-41970500D01*
X101644616Y-41970500D01*
X101711655Y-41990185D01*
X101757410Y-42042989D01*
X101767354Y-42112147D01*
X101764391Y-42126593D01*
X101714362Y-42313302D01*
X101714360Y-42313313D01*
X101694528Y-42539998D01*
X101694528Y-42540001D01*
X101714360Y-42766686D01*
X101714362Y-42766697D01*
X101728791Y-42820547D01*
X101754647Y-42917044D01*
X101764391Y-42953407D01*
X101762728Y-43023256D01*
X101723565Y-43081119D01*
X101659337Y-43108623D01*
X101644616Y-43109500D01*
X91982226Y-43109500D01*
X91915187Y-43089815D01*
X91894545Y-43073181D01*
X90876735Y-42055371D01*
X90843250Y-41994048D01*
X90848234Y-41924356D01*
X90890106Y-41868423D01*
X90955570Y-41844006D01*
X91023843Y-41858858D01*
G37*
%TD.AperFunction*%
%TA.AperFunction,Conductor*%
G36*
X89265475Y-40051111D02*
G01*
X90743013Y-41528649D01*
X90769893Y-41568877D01*
X90783533Y-41601807D01*
X90783538Y-41601817D01*
X90809721Y-41641002D01*
X90830599Y-41707680D01*
X90812114Y-41775060D01*
X90760136Y-41821750D01*
X90691166Y-41832926D01*
X90627102Y-41805041D01*
X90618938Y-41797574D01*
X89086712Y-40265348D01*
X89053227Y-40204025D01*
X89050865Y-40166863D01*
X89054266Y-40127982D01*
X89079718Y-40062916D01*
X89136309Y-40021937D01*
X89206071Y-40018059D01*
X89265475Y-40051111D01*
G37*
%TD.AperFunction*%
%TA.AperFunction,Conductor*%
G36*
X101061587Y-38230185D02*
G01*
X101082229Y-38246819D01*
X101769898Y-38934488D01*
X101796778Y-38974716D01*
X101811378Y-39009965D01*
X101811386Y-39009979D01*
X101885301Y-39120601D01*
X101885307Y-39120609D01*
X101895739Y-39131041D01*
X101929224Y-39192364D01*
X101924240Y-39262056D01*
X101909634Y-39289843D01*
X101869431Y-39347261D01*
X101869427Y-39347267D01*
X101773257Y-39553502D01*
X101773254Y-39553511D01*
X101714362Y-39773302D01*
X101714360Y-39773313D01*
X101694528Y-39999998D01*
X101694528Y-40000001D01*
X101714360Y-40226686D01*
X101714362Y-40226697D01*
X101764391Y-40413407D01*
X101762728Y-40483256D01*
X101723565Y-40541119D01*
X101659337Y-40568623D01*
X101644616Y-40569500D01*
X91675118Y-40569500D01*
X91608079Y-40549815D01*
X91587437Y-40533181D01*
X89476438Y-38422181D01*
X89442953Y-38360858D01*
X89447937Y-38291166D01*
X89489809Y-38235233D01*
X89555273Y-38210816D01*
X89564119Y-38210500D01*
X100994548Y-38210500D01*
X101061587Y-38230185D01*
G37*
%TD.AperFunction*%
%TA.AperFunction,Conductor*%
G36*
X106844805Y-30610185D02*
G01*
X106865447Y-30626819D01*
X111363177Y-35124548D01*
X111396662Y-35185871D01*
X111399496Y-35212229D01*
X111399496Y-36250001D01*
X111399497Y-36250019D01*
X111409996Y-36352796D01*
X111409997Y-36352799D01*
X111442957Y-36452264D01*
X111445359Y-36522092D01*
X111409627Y-36582134D01*
X111347107Y-36613327D01*
X111301061Y-36612886D01*
X111261282Y-36604973D01*
X111233763Y-36599500D01*
X111066229Y-36599500D01*
X111066224Y-36599500D01*
X110901921Y-36632182D01*
X110901913Y-36632184D01*
X110747135Y-36696295D01*
X110607833Y-36789373D01*
X110489369Y-36907837D01*
X110396291Y-37047139D01*
X110332180Y-37201917D01*
X110332178Y-37201925D01*
X110299496Y-37366228D01*
X110299496Y-37533771D01*
X110332178Y-37698074D01*
X110332180Y-37698082D01*
X110392227Y-37843047D01*
X110399696Y-37912516D01*
X110368421Y-37974996D01*
X110308332Y-38010648D01*
X110277666Y-38014500D01*
X104359396Y-38014500D01*
X104292357Y-37994815D01*
X104246602Y-37942011D01*
X104236658Y-37872853D01*
X104239621Y-37858407D01*
X104282581Y-37698074D01*
X104285631Y-37686692D01*
X104305464Y-37460000D01*
X104285631Y-37233308D01*
X104226735Y-37013504D01*
X104130564Y-36807266D01*
X104007970Y-36632182D01*
X104000041Y-36620858D01*
X103839137Y-36459954D01*
X103652730Y-36329432D01*
X103652724Y-36329429D01*
X103625034Y-36316517D01*
X103594720Y-36302381D01*
X103542281Y-36256210D01*
X103523129Y-36189017D01*
X103543344Y-36122135D01*
X103594721Y-36077618D01*
X103652730Y-36050568D01*
X103839135Y-35920047D01*
X104000043Y-35759139D01*
X104130564Y-35572734D01*
X104226735Y-35366496D01*
X104285631Y-35146692D01*
X104305464Y-34920000D01*
X104285631Y-34693308D01*
X104240912Y-34526415D01*
X104226737Y-34473511D01*
X104226734Y-34473502D01*
X104209809Y-34437206D01*
X104130564Y-34267266D01*
X104000043Y-34080861D01*
X104000041Y-34080858D01*
X103839137Y-33919954D01*
X103652730Y-33789432D01*
X103652724Y-33789429D01*
X103594721Y-33762382D01*
X103542281Y-33716210D01*
X103523129Y-33649017D01*
X103543344Y-33582135D01*
X103594721Y-33537618D01*
X103652730Y-33510568D01*
X103839135Y-33380047D01*
X104000043Y-33219139D01*
X104130564Y-33032734D01*
X104226735Y-32826496D01*
X104285631Y-32606692D01*
X104305464Y-32380000D01*
X104285631Y-32153308D01*
X104226735Y-31933504D01*
X104130564Y-31727266D01*
X104023190Y-31573918D01*
X104000041Y-31540858D01*
X103839137Y-31379954D01*
X103652730Y-31249432D01*
X103652724Y-31249429D01*
X103625034Y-31236517D01*
X103594720Y-31222381D01*
X103542281Y-31176210D01*
X103523129Y-31109017D01*
X103543344Y-31042135D01*
X103594721Y-30997618D01*
X103652730Y-30970568D01*
X103839135Y-30840047D01*
X104000043Y-30679139D01*
X104025084Y-30643377D01*
X104079661Y-30599752D01*
X104126659Y-30590500D01*
X106777766Y-30590500D01*
X106844805Y-30610185D01*
G37*
%TD.AperFunction*%
%TA.AperFunction,Conductor*%
G36*
X112099987Y-36950500D02*
G01*
X112388766Y-36950499D01*
X112455804Y-36970183D01*
X112501559Y-37022987D01*
X112511503Y-37092146D01*
X112482478Y-37155701D01*
X112476446Y-37162180D01*
X112209646Y-37428980D01*
X112148323Y-37462465D01*
X112078631Y-37457481D01*
X112022698Y-37415609D01*
X112000349Y-37365494D01*
X111967812Y-37201918D01*
X111932725Y-37117213D01*
X111925257Y-37047745D01*
X111956532Y-36985265D01*
X112016621Y-36949613D01*
X112059887Y-36946403D01*
X112099987Y-36950500D01*
G37*
%TD.AperFunction*%
%TA.AperFunction,Conductor*%
G36*
X110269805Y-26270185D02*
G01*
X110290447Y-26286819D01*
X110605043Y-26601415D01*
X110638528Y-26662738D01*
X110633544Y-26732430D01*
X110591672Y-26788363D01*
X110528170Y-26812624D01*
X110444592Y-26819936D01*
X110444582Y-26819938D01*
X110216340Y-26881094D01*
X110216331Y-26881098D01*
X110002167Y-26980964D01*
X110002165Y-26980965D01*
X109808593Y-27116505D01*
X109641502Y-27283596D01*
X109593870Y-27351623D01*
X109539293Y-27395248D01*
X109492295Y-27404500D01*
X100271076Y-27404500D01*
X100126088Y-27433340D01*
X100126078Y-27433343D01*
X99989507Y-27489912D01*
X99989494Y-27489919D01*
X99866580Y-27572048D01*
X99866576Y-27572051D01*
X98917045Y-28521581D01*
X98917041Y-28521585D01*
X98895141Y-28554364D01*
X98895141Y-28554365D01*
X98834910Y-28644508D01*
X98778339Y-28781082D01*
X98778336Y-28781092D01*
X98749496Y-28926079D01*
X98749496Y-28926082D01*
X98749496Y-34033918D01*
X98749496Y-34033920D01*
X98749495Y-34033920D01*
X98778336Y-34178907D01*
X98778339Y-34178917D01*
X98834908Y-34315487D01*
X98834913Y-34315497D01*
X98843547Y-34328418D01*
X98843548Y-34328419D01*
X98917047Y-34438420D01*
X98917048Y-34438421D01*
X99776447Y-35297819D01*
X99809932Y-35359142D01*
X99804948Y-35428833D01*
X99763076Y-35484767D01*
X99697612Y-35509184D01*
X99688766Y-35509500D01*
X89110017Y-35509500D01*
X89042978Y-35489815D01*
X88997223Y-35437011D01*
X88987279Y-35367853D01*
X88990242Y-35353407D01*
X89005137Y-35297819D01*
X89045631Y-35146692D01*
X89065464Y-34920000D01*
X89045631Y-34693308D01*
X89000912Y-34526415D01*
X88986737Y-34473511D01*
X88986734Y-34473502D01*
X88969809Y-34437206D01*
X88890564Y-34267266D01*
X88760043Y-34080861D01*
X88760041Y-34080858D01*
X88599137Y-33919954D01*
X88412730Y-33789432D01*
X88412724Y-33789429D01*
X88354721Y-33762382D01*
X88302281Y-33716210D01*
X88283129Y-33649017D01*
X88303344Y-33582135D01*
X88354721Y-33537618D01*
X88412730Y-33510568D01*
X88599135Y-33380047D01*
X88760043Y-33219139D01*
X88785084Y-33183377D01*
X88839661Y-33139752D01*
X88886659Y-33130500D01*
X89193916Y-33130500D01*
X89291458Y-33111096D01*
X89338909Y-33101658D01*
X89475491Y-33045084D01*
X89524725Y-33012186D01*
X89598412Y-32962952D01*
X90582948Y-31978416D01*
X90612952Y-31933511D01*
X90634283Y-31901586D01*
X90634284Y-31901584D01*
X90665080Y-31855495D01*
X90721654Y-31718913D01*
X90750496Y-31573918D01*
X90750496Y-27862229D01*
X90770181Y-27795190D01*
X90786815Y-27774548D01*
X92274544Y-26286819D01*
X92335867Y-26253334D01*
X92362225Y-26250500D01*
X110202766Y-26250500D01*
X110269805Y-26270185D01*
G37*
%TD.AperFunction*%
%TA.AperFunction,Conductor*%
G36*
X101895560Y-28925185D02*
G01*
X101941315Y-28977989D01*
X101951259Y-29047147D01*
X101930096Y-29100623D01*
X101869428Y-29187265D01*
X101869427Y-29187267D01*
X101773257Y-29393502D01*
X101773254Y-29393511D01*
X101714362Y-29613302D01*
X101714360Y-29613313D01*
X101694528Y-29839998D01*
X101694528Y-29840001D01*
X101714360Y-30066686D01*
X101714362Y-30066697D01*
X101773254Y-30286488D01*
X101773257Y-30286497D01*
X101869427Y-30492732D01*
X101869428Y-30492734D01*
X101999950Y-30679141D01*
X102160854Y-30840045D01*
X102160857Y-30840047D01*
X102347262Y-30970568D01*
X102405271Y-30997618D01*
X102457710Y-31043791D01*
X102476862Y-31110984D01*
X102456646Y-31177865D01*
X102405271Y-31222381D01*
X102388268Y-31230310D01*
X102347263Y-31249431D01*
X102347261Y-31249432D01*
X102160854Y-31379954D01*
X101999950Y-31540858D01*
X101869428Y-31727265D01*
X101869427Y-31727267D01*
X101773257Y-31933502D01*
X101773254Y-31933511D01*
X101714362Y-32153302D01*
X101714360Y-32153313D01*
X101694528Y-32379998D01*
X101694528Y-32380001D01*
X101714360Y-32606686D01*
X101714362Y-32606697D01*
X101773254Y-32826488D01*
X101773256Y-32826493D01*
X101773257Y-32826496D01*
X101797469Y-32878418D01*
X101869427Y-33032732D01*
X101869428Y-33032734D01*
X101999950Y-33219141D01*
X102160854Y-33380045D01*
X102160857Y-33380047D01*
X102347262Y-33510568D01*
X102405271Y-33537618D01*
X102457710Y-33583791D01*
X102476862Y-33650984D01*
X102456646Y-33717865D01*
X102405271Y-33762382D01*
X102347263Y-33789431D01*
X102347261Y-33789432D01*
X102160854Y-33919954D01*
X101999950Y-34080858D01*
X101869428Y-34267265D01*
X101869427Y-34267267D01*
X101773257Y-34473502D01*
X101773254Y-34473511D01*
X101714362Y-34693302D01*
X101714360Y-34693312D01*
X101703773Y-34814327D01*
X101678320Y-34879395D01*
X101621729Y-34920374D01*
X101551967Y-34924252D01*
X101492564Y-34891200D01*
X100286815Y-33685451D01*
X100253330Y-33624128D01*
X100250496Y-33597770D01*
X100250496Y-29362229D01*
X100270181Y-29295190D01*
X100286815Y-29274548D01*
X100619544Y-28941819D01*
X100680867Y-28908334D01*
X100707225Y-28905500D01*
X101828521Y-28905500D01*
X101895560Y-28925185D01*
G37*
%TD.AperFunction*%
%TA.AperFunction,Conductor*%
G36*
X114574851Y-28821546D02*
G01*
X114591571Y-28840842D01*
X114703617Y-29000861D01*
X114721501Y-29026401D01*
X114888595Y-29193495D01*
X114979354Y-29257045D01*
X115082161Y-29329032D01*
X115082163Y-29329033D01*
X115082166Y-29329035D01*
X115296333Y-29428903D01*
X115524588Y-29490063D01*
X115701030Y-29505500D01*
X115759995Y-29510659D01*
X115759996Y-29510659D01*
X115759997Y-29510659D01*
X115818962Y-29505500D01*
X115995404Y-29490063D01*
X116223659Y-29428903D01*
X116437826Y-29329035D01*
X116631397Y-29193495D01*
X116753325Y-29071566D01*
X116814644Y-29038084D01*
X116884336Y-29043068D01*
X116940270Y-29084939D01*
X116957185Y-29115917D01*
X117006198Y-29247328D01*
X117006202Y-29247335D01*
X117092448Y-29362544D01*
X117092451Y-29362547D01*
X117207660Y-29448793D01*
X117207667Y-29448797D01*
X117252614Y-29465561D01*
X117342513Y-29499091D01*
X117402123Y-29505500D01*
X117425493Y-29505499D01*
X117492532Y-29525181D01*
X117538288Y-29577983D01*
X117549496Y-29629499D01*
X117549496Y-32037770D01*
X117529811Y-32104809D01*
X117513177Y-32125451D01*
X116883134Y-32755494D01*
X116274113Y-33364514D01*
X116274110Y-33364517D01*
X115687622Y-33951004D01*
X115626299Y-33984489D01*
X115571546Y-33981542D01*
X115570982Y-33983892D01*
X115566242Y-33982754D01*
X115408772Y-33957813D01*
X115356283Y-33949500D01*
X115143709Y-33949500D01*
X115095038Y-33957208D01*
X114933756Y-33982753D01*
X114731581Y-34048444D01*
X114542175Y-34144951D01*
X114370211Y-34269889D01*
X114231394Y-34408706D01*
X114170071Y-34442190D01*
X114100379Y-34437206D01*
X114044446Y-34395334D01*
X114038174Y-34386120D01*
X113994607Y-34315487D01*
X113942708Y-34231344D01*
X113818652Y-34107288D01*
X113669330Y-34015186D01*
X113502793Y-33960001D01*
X113502791Y-33960000D01*
X113400012Y-33949500D01*
X113400005Y-33949500D01*
X112362226Y-33949500D01*
X112295187Y-33929815D01*
X112274545Y-33913181D01*
X107618409Y-29257045D01*
X107569175Y-29224150D01*
X107536351Y-29202218D01*
X107495491Y-29174916D01*
X107495490Y-29174915D01*
X107495488Y-29174914D01*
X107495486Y-29174913D01*
X107421001Y-29144061D01*
X107366597Y-29100220D01*
X107344532Y-29033926D01*
X107361811Y-28966227D01*
X107412948Y-28918616D01*
X107468453Y-28905500D01*
X109492295Y-28905500D01*
X109559334Y-28925185D01*
X109593869Y-28958376D01*
X109623618Y-29000861D01*
X109641501Y-29026401D01*
X109808595Y-29193495D01*
X109899354Y-29257045D01*
X110002161Y-29329032D01*
X110002163Y-29329033D01*
X110002166Y-29329035D01*
X110216333Y-29428903D01*
X110444588Y-29490063D01*
X110621030Y-29505500D01*
X110679995Y-29510659D01*
X110679996Y-29510659D01*
X110679997Y-29510659D01*
X110738962Y-29505500D01*
X110915404Y-29490063D01*
X111143659Y-29428903D01*
X111357826Y-29329035D01*
X111551397Y-29193495D01*
X111718491Y-29026401D01*
X111848421Y-28840842D01*
X111902998Y-28797217D01*
X111972496Y-28790023D01*
X112034851Y-28821546D01*
X112051571Y-28840842D01*
X112163617Y-29000861D01*
X112181501Y-29026401D01*
X112348595Y-29193495D01*
X112439354Y-29257045D01*
X112542161Y-29329032D01*
X112542163Y-29329033D01*
X112542166Y-29329035D01*
X112756333Y-29428903D01*
X112984588Y-29490063D01*
X113161030Y-29505500D01*
X113219995Y-29510659D01*
X113219996Y-29510659D01*
X113219997Y-29510659D01*
X113278962Y-29505500D01*
X113455404Y-29490063D01*
X113683659Y-29428903D01*
X113897826Y-29329035D01*
X114091397Y-29193495D01*
X114258491Y-29026401D01*
X114388421Y-28840842D01*
X114442998Y-28797217D01*
X114512496Y-28790023D01*
X114574851Y-28821546D01*
G37*
%TD.AperFunction*%
%TA.AperFunction,Conductor*%
G36*
X89184921Y-30802026D02*
G01*
X89234327Y-30851430D01*
X89249496Y-30910859D01*
X89249496Y-31137769D01*
X89229811Y-31204808D01*
X89213177Y-31225450D01*
X88916586Y-31522041D01*
X88855263Y-31555526D01*
X88785571Y-31550542D01*
X88741224Y-31522041D01*
X88599139Y-31379956D01*
X88574532Y-31362726D01*
X88530908Y-31308149D01*
X88523715Y-31238650D01*
X88555237Y-31176296D01*
X88615467Y-31140882D01*
X88632400Y-31137861D01*
X88667479Y-31134091D01*
X88802327Y-31083796D01*
X88917542Y-30997546D01*
X89003792Y-30882331D01*
X89009314Y-30867525D01*
X89051184Y-30811593D01*
X89116648Y-30787175D01*
X89184921Y-30802026D01*
G37*
%TD.AperFunction*%
%TA.AperFunction,Conductor*%
G36*
X89168830Y-27495047D02*
G01*
X89224763Y-27536919D01*
X89249180Y-27602383D01*
X89249496Y-27611229D01*
X89249496Y-28769140D01*
X89229811Y-28836179D01*
X89177007Y-28881934D01*
X89107849Y-28891878D01*
X89044293Y-28862853D01*
X89009314Y-28812473D01*
X89003793Y-28797671D01*
X89003789Y-28797664D01*
X88917543Y-28682455D01*
X88917540Y-28682452D01*
X88802331Y-28596206D01*
X88802324Y-28596202D01*
X88667479Y-28545908D01*
X88621239Y-28540937D01*
X88556689Y-28514199D01*
X88516841Y-28456806D01*
X88510496Y-28417648D01*
X88510496Y-28102229D01*
X88530181Y-28035190D01*
X88546811Y-28014552D01*
X89037815Y-27523547D01*
X89099138Y-27490063D01*
X89168830Y-27495047D01*
G37*
%TD.AperFunction*%
%TA.AperFunction,Conductor*%
G36*
X111309805Y-24770185D02*
G01*
X111330447Y-24786819D01*
X112295185Y-25751557D01*
X113145044Y-26601415D01*
X113178529Y-26662738D01*
X113173545Y-26732430D01*
X113131673Y-26788363D01*
X113068170Y-26812624D01*
X113006982Y-26817977D01*
X112938482Y-26804210D01*
X112908494Y-26782130D01*
X111088546Y-24962181D01*
X111055061Y-24900858D01*
X111060045Y-24831166D01*
X111101917Y-24775233D01*
X111167381Y-24750816D01*
X111176227Y-24750500D01*
X111242766Y-24750500D01*
X111309805Y-24770185D01*
G37*
%TD.AperFunction*%
%TD*%
M02*
