%TF.GenerationSoftware,KiCad,Pcbnew,8.0.0*%
%TF.CreationDate,2024-03-22T16:21:54-07:00*%
%TF.ProjectId,stepper_controller_pcb,73746570-7065-4725-9f63-6f6e74726f6c,rev?*%
%TF.SameCoordinates,Original*%
%TF.FileFunction,Soldermask,Top*%
%TF.FilePolarity,Negative*%
%FSLAX46Y46*%
G04 Gerber Fmt 4.6, Leading zero omitted, Abs format (unit mm)*
G04 Created by KiCad (PCBNEW 8.0.0) date 2024-03-22 16:21:54*
%MOMM*%
%LPD*%
G01*
G04 APERTURE LIST*
G04 Aperture macros list*
%AMRoundRect*
0 Rectangle with rounded corners*
0 $1 Rounding radius*
0 $2 $3 $4 $5 $6 $7 $8 $9 X,Y pos of 4 corners*
0 Add a 4 corners polygon primitive as box body*
4,1,4,$2,$3,$4,$5,$6,$7,$8,$9,$2,$3,0*
0 Add four circle primitives for the rounded corners*
1,1,$1+$1,$2,$3*
1,1,$1+$1,$4,$5*
1,1,$1+$1,$6,$7*
1,1,$1+$1,$8,$9*
0 Add four rect primitives between the rounded corners*
20,1,$1+$1,$2,$3,$4,$5,0*
20,1,$1+$1,$4,$5,$6,$7,0*
20,1,$1+$1,$6,$7,$8,$9,0*
20,1,$1+$1,$8,$9,$2,$3,0*%
G04 Aperture macros list end*
%ADD10R,1.700000X1.700000*%
%ADD11O,1.700000X1.700000*%
%ADD12R,1.600000X1.600000*%
%ADD13O,1.600000X1.600000*%
%ADD14RoundRect,0.250000X0.600000X0.725000X-0.600000X0.725000X-0.600000X-0.725000X0.600000X-0.725000X0*%
%ADD15O,1.700000X1.950000*%
%ADD16C,1.200000*%
%ADD17RoundRect,0.250000X-0.600000X-0.750000X0.600000X-0.750000X0.600000X0.750000X-0.600000X0.750000X0*%
%ADD18O,1.700000X2.000000*%
%ADD19C,1.600000*%
G04 APERTURE END LIST*
D10*
%TO.C,J5*%
X118299996Y-28155000D03*
D11*
X115759996Y-28155000D03*
X113219996Y-28155000D03*
X110679996Y-28155000D03*
%TD*%
D12*
%TO.C,A1*%
X87759996Y-29840000D03*
D13*
X87759996Y-32380000D03*
X87759996Y-34920000D03*
X87759996Y-37460000D03*
X87759996Y-40000000D03*
X87759996Y-42540000D03*
X87759996Y-45080000D03*
X87759996Y-47620000D03*
X87759996Y-50160000D03*
X87759996Y-52700000D03*
X87759996Y-55240000D03*
X87759996Y-57780000D03*
X87759996Y-60320000D03*
X87759996Y-62860000D03*
X87759996Y-65400000D03*
X102999996Y-65400000D03*
X102999996Y-62860000D03*
X102999996Y-60320000D03*
X102999996Y-57780000D03*
X102999996Y-55240000D03*
X102999996Y-52700000D03*
X102999996Y-50160000D03*
X102999996Y-47620000D03*
X102999996Y-45080000D03*
X102999996Y-42540000D03*
X102999996Y-40000000D03*
X102999996Y-37460000D03*
X102999996Y-34920000D03*
X102999996Y-32380000D03*
X102999996Y-29840000D03*
%TD*%
D14*
%TO.C,J3*%
X119249996Y-46525000D03*
D15*
X116749996Y-46525000D03*
X114249996Y-46525000D03*
X111749996Y-46525000D03*
%TD*%
D10*
%TO.C,J1*%
X111749996Y-70475000D03*
D11*
X111749996Y-67935000D03*
X114289996Y-70475000D03*
X114289996Y-67935000D03*
X116829996Y-70475000D03*
X116829996Y-67935000D03*
%TD*%
D14*
%TO.C,J4*%
X119249996Y-58975000D03*
D15*
X116749996Y-58975000D03*
X114249996Y-58975000D03*
X111749996Y-58975000D03*
%TD*%
D16*
%TO.C,J2*%
X111149996Y-37450000D03*
D17*
X112749996Y-35450000D03*
D18*
X115249996Y-35450000D03*
%TD*%
D19*
%TO.C,R1*%
X106499996Y-44880000D03*
D13*
X106499996Y-60120000D03*
%TD*%
M02*
