M48
; DRILL file {KiCad 8.0.0} date 2024-03-28T15:12:33-0700
; FORMAT={-:-/ absolute / inch / decimal}
; #@! TF.CreationDate,2024-03-28T15:12:33-07:00
; #@! TF.GenerationSoftware,Kicad,Pcbnew,8.0.0
; #@! TF.FileFunction,Plated,1,2,PTH
FMAT,2
INCH
; #@! TA.AperFunction,Plated,PTH,ComponentDrill
T1C0.0315
; #@! TA.AperFunction,Plated,PTH,ComponentDrill
T2C0.0374
; #@! TA.AperFunction,Plated,PTH,ComponentDrill
T3C0.0394
%
G90
G05
T1
X4.1929Y-1.7669
X4.1929Y-2.3669
T2
X4.3996Y-1.8317
X4.3996Y-2.3219
X4.498Y-1.8317
X4.498Y-2.3219
X4.5965Y-1.8317
X4.5965Y-2.3219
X4.6949Y-1.8317
X4.6949Y-2.3219
T3
X3.4551Y-1.1748
X3.4551Y-1.2748
X3.4551Y-1.3748
X3.4551Y-1.4748
X3.4551Y-1.5748
X3.4551Y-1.6748
X3.4551Y-1.7748
X3.4551Y-1.8748
X3.4551Y-1.9748
X3.4551Y-2.0748
X3.4551Y-2.1748
X3.4551Y-2.2748
X3.4551Y-2.3748
X3.4551Y-2.4748
X3.4551Y-2.5748
X4.0551Y-1.1748
X4.0551Y-1.2748
X4.0551Y-1.3748
X4.0551Y-1.4748
X4.0551Y-1.5748
X4.0551Y-1.6748
X4.0551Y-1.7748
X4.0551Y-1.8748
X4.0551Y-1.9748
X4.0551Y-2.0748
X4.0551Y-2.1748
X4.0551Y-2.2748
X4.0551Y-2.3748
X4.0551Y-2.4748
X4.0551Y-2.5748
X4.3575Y-1.1085
X4.3996Y-2.6746
X4.3996Y-2.7746
X4.439Y-1.3957
X4.4575Y-1.1085
X4.4996Y-2.6746
X4.4996Y-2.7746
X4.5374Y-1.3957
X4.5575Y-1.1085
X4.5996Y-2.6746
X4.5996Y-2.7746
X4.6575Y-1.1085
M30
