M48
; DRILL file {KiCad 8.0.0} date 2024-04-24T20:10:37-0700
; FORMAT={-:-/ absolute / inch / decimal}
; #@! TF.CreationDate,2024-04-24T20:10:37-07:00
; #@! TF.GenerationSoftware,Kicad,Pcbnew,8.0.0
; #@! TF.FileFunction,Plated,1,2,PTH
FMAT,2
INCH
; #@! TA.AperFunction,Plated,PTH,ComponentDrill
T1C0.0315
; #@! TA.AperFunction,Plated,PTH,ComponentDrill
T2C0.0374
; #@! TA.AperFunction,Plated,PTH,ComponentDrill
T3C0.0394
%
G90
G05
T1
X4.0632Y-3.6175
X4.0632Y-4.2175
T2
X3.4951Y-2.4429
X3.4951Y-2.5413
X3.4951Y-2.6398
X4.2699Y-3.6823
X4.2699Y-4.1724
X4.3683Y-3.6823
X4.3683Y-4.1724
X4.4449Y-2.4429
X4.4449Y-2.5413
X4.4449Y-2.6398
X4.4667Y-3.6823
X4.4667Y-4.1724
X4.5652Y-3.6823
X4.5652Y-4.1724
T3
X3.3254Y-3.0254
X3.3254Y-3.1254
X3.3254Y-3.2254
X3.3254Y-3.3254
X3.3254Y-3.4254
X3.3254Y-3.5254
X3.3254Y-3.6254
X3.3254Y-3.7254
X3.3254Y-3.8254
X3.3254Y-3.9254
X3.3254Y-4.0254
X3.3254Y-4.1254
X3.3254Y-4.2254
X3.3254Y-4.3254
X3.3254Y-4.4254
X3.9254Y-3.0254
X3.9254Y-3.1254
X3.9254Y-3.2254
X3.9254Y-3.3254
X3.9254Y-3.4254
X3.9254Y-3.5254
X3.9254Y-3.6254
X3.9254Y-3.7254
X3.9254Y-3.8254
X3.9254Y-3.9254
X3.9254Y-4.0254
X3.9254Y-4.1254
X3.9254Y-4.2254
X3.9254Y-4.3254
X3.9254Y-4.4254
X4.0789Y-3.1689
X4.0789Y-3.2689
X4.2278Y-2.9591
X4.2699Y-4.5252
X4.2699Y-4.6252
X4.3093Y-3.2463
X4.3278Y-2.9591
X4.3699Y-4.5252
X4.3699Y-4.6252
X4.4077Y-3.2463
X4.4278Y-2.9591
X4.4699Y-4.5252
X4.4699Y-4.6252
X4.5278Y-2.9591
M30
